<svg id="Layer_1" data-name="Layer 1" xmlns="http://www.w3.org/2000/svg" viewBox="0 0 54.67 53.06"><defs><style>.cls-1{fill:#231f20;}</style></defs><path class="cls-1" d="M72.79,48a6.49,6.49,0,0,1-3.52,1.68,7,7,0,0,1-4.62-.63c-3.23-1.94-3.69-7.6-1.77-11.27.2-.38,2.29-4.27,5.24-4,1.92.15,3.13,2,3.92,3.12C74.11,40,75.42,45.3,72.79,48Z" transform="translate(-19.58 -18.46)"/><path class="cls-1" d="M58.39,37a7.31,7.31,0,0,1-7-1c-4.61-3.39-4.7-12.46-.87-15.31a6.24,6.24,0,0,1,4.31-1c3.35.44,5.16,3.52,5.9,4.77.59,1,2.74,4.65,1.26,8.51A7.13,7.13,0,0,1,58.39,37Z" transform="translate(-19.58 -18.46)"/><path class="cls-1" d="M32.91,23.66c1-2,2.59-5,5-5.19,3.53-.29,6.24,5.55,6.74,6.64,1.13,2.42,3.28,7.07.69,10.81-1.94,2.81-6.08,4.42-9.43,3C32,37.21,31.43,32.31,31.29,31A12.44,12.44,0,0,1,32.91,23.66Z" transform="translate(-19.58 -18.46)"/><path class="cls-1" d="M41.38,42.23c4.27-2.92,9.52-2,11.74-1.4a32.78,32.78,0,0,1,6,4.41A34,34,0,0,1,65,52.53c2.1,3.33,3.16,5,3.14,7,0,3.68-2.76,6.23-3.54,6.9-1,.83-3.12,2.68-5.57,2.3-1.82-.28-2.11-1.54-5.09-2.28a7.89,7.89,0,0,0-3-.26,7.8,7.8,0,0,0-3.26,1.29c-1.79,1.22-1.71,2.18-2.92,3.09-2.39,1.81-6.07.59-6.59.41a10.1,10.1,0,0,1-6.21-7.39c-.59-2.76.76-5.75,3.49-11.6C37.93,46.46,39.26,43.68,41.38,42.23Z" transform="translate(-19.58 -18.46)"/><path class="cls-1" d="M25.18,37.58c2.66-.6,5.46,2,6.68,3.61,1.79,2.37,2.9,6.25,1.12,9.54a8.24,8.24,0,0,1-4.64,3.75c-2.09.66-5,.65-6.81-.89C17.43,50,20.36,38.68,25.18,37.58Z" transform="translate(-19.58 -18.46)"/></svg>