<svg id="svg" version="1.1" xmlns="http://www.w3.org/2000/svg" xmlns:xlink="http://www.w3.org/1999/xlink" width="400" height="225" viewBox="0, 0, 400,225"><g id="svgg"><path id="path0" d="M250.815 2.236 C 250.759 2.294,250.159 2.375,249.481 2.415 C 246.862 2.569,245.587 2.683,244.931 2.820 C 244.557 2.899,244.137 2.961,244.000 2.958 C 243.664 2.951,241.313 3.424,239.167 3.931 C 232.304 5.551,224.742 9.111,219.292 13.285 C 218.751 13.700,218.249 13.968,218.141 13.901 C 218.029 13.831,217.993 13.855,218.056 13.956 C 218.116 14.052,217.621 14.565,216.957 15.095 C 213.639 17.745,208.997 22.896,206.304 26.917 C 205.567 28.017,204.892 28.896,204.803 28.871 C 204.714 28.846,204.690 28.904,204.750 28.999 C 204.809 29.095,204.621 29.558,204.332 30.027 C 197.895 40.490,195.371 55.589,197.917 68.417 C 198.044 69.058,198.187 69.800,198.234 70.064 L 198.319 70.545 197.285 70.440 C 196.716 70.383,195.200 70.259,193.917 70.166 C 192.633 70.072,191.279 69.963,190.906 69.923 C 190.534 69.884,189.414 69.768,188.418 69.667 C 187.422 69.565,186.557 69.452,186.496 69.414 C 186.435 69.376,185.942 69.307,185.401 69.259 C 184.859 69.212,184.229 69.131,184.000 69.079 C 183.771 69.028,183.283 68.948,182.917 68.901 C 182.550 68.854,182.063 68.791,181.833 68.761 C 181.467 68.714,179.694 68.427,178.750 68.263 C 178.567 68.231,177.967 68.127,177.417 68.033 C 176.867 67.939,176.218 67.785,175.975 67.691 C 175.733 67.598,175.498 67.557,175.454 67.602 C 175.369 67.687,168.729 66.225,168.468 66.063 C 168.383 66.011,168.150 65.944,167.949 65.914 C 167.573 65.858,167.423 65.824,166.208 65.514 C 165.819 65.415,165.181 65.255,164.792 65.159 C 138.492 58.684,108.692 40.431,89.567 19.083 C 88.450 17.836,84.124 12.825,83.924 12.546 C 83.821 12.402,81.184 17.873,80.411 19.833 C 78.864 23.758,77.449 28.871,77.091 31.833 C 76.228 38.968,76.250 43.413,77.180 49.250 C 77.282 49.892,77.389 50.567,77.418 50.750 C 77.747 52.881,78.911 56.959,80.071 60.045 C 80.407 60.940,80.630 61.765,80.565 61.878 C 80.500 61.991,80.507 62.029,80.581 61.962 C 80.655 61.895,81.330 63.095,82.080 64.628 C 83.478 67.486,85.076 70.213,86.526 72.214 C 86.977 72.836,87.300 73.419,87.244 73.510 C 87.188 73.601,87.214 73.654,87.301 73.629 C 87.389 73.604,87.851 74.071,88.329 74.667 C 88.807 75.262,89.885 76.527,90.724 77.477 C 91.563 78.427,92.229 79.276,92.204 79.364 C 92.179 79.453,92.224 79.484,92.305 79.434 C 92.506 79.310,93.200 80.074,93.043 80.247 C 92.974 80.324,92.998 80.340,93.098 80.284 C 93.197 80.227,93.797 80.648,94.431 81.218 C 96.423 83.012,97.532 83.918,99.250 85.160 C 100.167 85.822,100.951 86.397,100.993 86.438 C 101.035 86.480,100.247 86.470,99.243 86.417 C 98.238 86.365,97.304 86.318,97.167 86.313 C 97.029 86.309,96.467 86.229,95.917 86.137 C 95.367 86.045,94.654 85.940,94.333 85.903 C 93.258 85.780,92.634 85.679,92.299 85.573 C 92.116 85.515,91.806 85.445,91.608 85.417 C 88.292 84.957,82.064 82.772,77.682 80.531 L 75.947 79.643 76.071 82.363 C 76.223 85.685,76.232 85.784,76.571 88.167 C 79.292 107.309,92.134 123.927,109.986 131.409 C 113.071 132.702,118.869 134.500,119.953 134.500 C 121.557 134.500,117.867 135.526,114.500 136.016 C 113.240 136.200,112.878 136.242,110.750 136.457 C 109.191 136.614,102.588 136.602,100.917 136.439 C 100.183 136.367,99.471 136.306,99.333 136.303 C 99.196 136.299,98.754 136.227,98.351 136.142 C 97.948 136.057,97.201 135.948,96.692 135.900 C 96.184 135.852,95.707 135.775,95.634 135.730 C 95.358 135.559,96.546 138.863,97.603 141.209 C 97.924 141.919,98.132 142.587,98.067 142.693 C 98.001 142.799,98.021 142.840,98.112 142.784 C 98.319 142.656,99.045 144.126,98.894 144.370 C 98.832 144.470,98.852 144.508,98.938 144.455 C 99.024 144.402,99.457 145.009,99.901 145.804 C 101.028 147.823,102.926 150.671,104.414 152.575 C 105.107 153.461,105.629 154.259,105.575 154.347 C 105.520 154.436,105.537 154.489,105.613 154.465 C 105.787 154.410,112.235 160.869,112.191 161.054 C 112.173 161.130,112.221 161.153,112.297 161.106 C 112.373 161.059,112.956 161.436,113.593 161.944 C 122.706 169.219,134.075 173.556,145.394 174.073 C 146.298 174.115,147.072 174.183,147.114 174.225 C 147.534 174.645,132.870 184.249,132.324 183.911 C 132.233 183.855,132.179 183.898,132.204 184.008 C 132.258 184.240,124.828 188.026,124.251 188.060 C 124.039 188.073,123.892 188.127,123.925 188.180 C 123.958 188.233,123.707 188.398,123.367 188.546 C 119.920 190.056,116.001 191.536,115.728 191.431 C 115.615 191.388,115.497 191.425,115.468 191.513 C 115.319 191.961,108.436 193.992,102.250 195.414 C 100.722 195.766,97.182 196.425,95.917 196.594 C 95.733 196.618,94.796 196.755,93.833 196.897 C 92.871 197.040,91.596 197.199,91.000 197.251 C 90.404 197.302,89.692 197.379,89.417 197.420 C 89.142 197.461,88.056 197.540,87.003 197.595 C 85.951 197.650,85.027 197.733,84.950 197.781 C 84.684 197.945,75.075 197.974,72.752 197.818 C 71.469 197.732,69.632 197.617,68.668 197.564 C 67.705 197.510,66.804 197.411,66.667 197.343 C 66.529 197.275,66.231 197.267,66.003 197.325 C 65.419 197.474,71.230 201.001,77.283 204.170 C 78.218 204.659,78.937 205.133,78.882 205.222 C 78.827 205.312,78.864 205.334,78.963 205.273 C 79.207 205.122,80.678 205.848,80.549 206.055 C 80.494 206.145,80.534 206.165,80.638 206.101 C 80.742 206.037,81.298 206.205,81.872 206.475 C 82.447 206.745,83.637 207.303,84.518 207.716 C 91.212 210.854,100.279 214.170,108.000 216.304 C 110.839 217.088,117.274 218.669,118.000 218.760 C 118.138 218.778,118.813 218.911,119.500 219.057 C 120.188 219.202,121.200 219.395,121.750 219.486 C 122.300 219.577,123.688 219.810,124.833 220.004 C 125.979 220.198,127.142 220.384,127.417 220.418 C 127.692 220.452,128.779 220.596,129.833 220.739 C 131.961 221.028,133.454 221.200,133.833 221.201 C 133.971 221.201,134.571 221.265,135.167 221.342 C 135.762 221.420,137.037 221.533,138.000 221.593 C 138.962 221.654,140.012 221.725,140.333 221.752 C 145.011 222.147,155.121 222.148,160.667 221.753 C 161.079 221.723,162.167 221.655,163.083 221.602 C 164.000 221.548,165.313 221.434,166.000 221.348 C 166.688 221.263,167.362 221.196,167.500 221.201 C 167.813 221.211,172.044 220.713,173.500 220.494 C 174.096 220.404,174.921 220.294,175.333 220.249 C 175.746 220.204,176.458 220.098,176.917 220.012 C 177.375 219.927,178.875 219.662,180.250 219.424 C 188.692 217.963,196.701 215.834,206.000 212.578 C 227.311 205.117,249.531 190.250,265.153 173.000 C 266.107 171.946,267.160 170.783,267.491 170.417 C 277.677 159.155,288.598 141.759,294.750 127.000 C 294.998 126.404,295.335 125.617,295.498 125.250 C 296.758 122.425,299.940 113.492,301.168 109.333 C 301.371 108.646,301.656 107.708,301.801 107.250 C 301.947 106.792,302.081 106.342,302.099 106.250 C 302.117 106.158,302.547 104.433,303.054 102.417 C 303.561 100.400,304.097 98.188,304.245 97.500 C 304.394 96.813,304.594 95.954,304.691 95.592 C 304.788 95.229,304.899 94.675,304.938 94.360 C 304.977 94.045,305.088 93.442,305.185 93.019 C 305.282 92.596,305.390 92.063,305.425 91.833 C 305.461 91.604,305.681 90.254,305.915 88.833 C 306.149 87.412,306.420 85.650,306.518 84.917 C 306.616 84.183,306.729 83.396,306.770 83.167 C 306.810 82.938,306.849 82.637,306.857 82.500 C 306.865 82.362,306.977 81.313,307.108 80.167 C 307.353 78.015,307.382 77.671,307.580 74.583 C 307.645 73.575,307.750 72.019,307.812 71.126 C 307.875 70.232,307.917 66.681,307.907 63.235 L 307.889 56.969 308.820 56.279 C 316.248 50.777,323.404 43.908,329.513 36.417 C 331.460 34.028,335.488 28.500,335.280 28.500 C 335.244 28.500,334.210 28.922,332.982 29.437 C 330.501 30.479,328.640 31.172,325.417 32.253 C 322.534 33.221,319.139 34.180,316.250 34.843 C 315.425 35.032,314.300 35.291,313.750 35.417 C 313.200 35.544,312.525 35.685,312.250 35.731 C 311.975 35.777,311.300 35.897,310.750 35.997 C 309.464 36.233,307.887 36.503,307.250 36.597 C 305.686 36.828,303.965 37.021,303.916 36.972 C 303.885 36.940,304.885 36.228,306.138 35.388 C 315.335 29.224,322.699 20.089,326.741 9.833 C 327.084 8.962,327.423 8.135,327.495 7.995 C 327.683 7.624,327.877 6.667,327.763 6.667 C 327.711 6.667,326.786 7.160,325.709 7.764 C 323.547 8.974,318.947 11.291,317.000 12.149 C 316.313 12.452,315.412 12.853,315.000 13.039 C 309.903 15.340,300.231 18.386,294.194 19.592 L 292.804 19.869 290.944 18.049 C 283.896 11.151,272.910 5.119,264.917 3.758 C 264.733 3.726,263.796 3.551,262.833 3.369 C 260.098 2.849,258.850 2.660,257.500 2.561 C 256.813 2.510,255.912 2.444,255.500 2.413 C 252.824 2.217,250.902 2.144,250.815 2.236 " stroke="none" fill="#04a4f4" fill-rule="evenodd"></path><path id="path1" d="M273.167 6.246 C 273.167 6.377,274.375 6.847,274.470 6.752 C 274.517 6.705,274.515 6.667,274.465 6.667 C 274.415 6.667,274.102 6.553,273.770 6.414 C 273.438 6.276,273.167 6.200,273.167 6.246 M226.750 8.345 C 226.475 8.521,226.335 8.665,226.440 8.666 C 226.544 8.666,226.807 8.519,227.023 8.339 C 227.519 7.926,227.400 7.929,226.750 8.345 M224.042 9.853 C 223.474 10.216,223.290 10.461,223.792 10.185 C 224.174 9.975,224.773 9.511,224.667 9.508 C 224.621 9.507,224.340 9.662,224.042 9.853 M280.250 9.753 C 280.433 9.902,280.733 10.098,280.917 10.188 L 281.250 10.352 280.917 10.080 C 280.733 9.931,280.433 9.735,280.250 9.645 L 279.917 9.482 280.250 9.753 M214.858 16.601 C 214.734 16.741,214.666 16.888,214.706 16.929 C 214.747 16.969,214.916 16.852,215.082 16.668 C 215.249 16.484,215.317 16.336,215.234 16.340 C 215.151 16.343,214.982 16.461,214.858 16.601 M212.910 18.542 L 212.083 19.417 212.958 18.590 C 213.440 18.135,213.833 17.741,213.833 17.715 C 213.833 17.590,213.679 17.729,212.910 18.542 M291.583 18.500 C 292.035 18.958,292.442 19.333,292.487 19.333 C 292.533 19.333,292.201 18.958,291.750 18.500 C 291.299 18.042,290.892 17.667,290.846 17.667 C 290.800 17.667,291.132 18.042,291.583 18.500 M93.250 22.833 C 93.979 23.567,94.613 24.167,94.659 24.167 C 94.705 24.167,94.146 23.567,93.417 22.833 C 92.688 22.100,92.054 21.500,92.008 21.500 C 91.962 21.500,92.521 22.100,93.250 22.833 M95.167 24.713 C 95.167 24.738,95.748 25.319,96.458 26.004 L 97.750 27.250 96.504 25.958 C 95.347 24.759,95.167 24.591,95.167 24.713 M314.413 28.708 L 313.083 30.083 314.458 28.754 C 315.215 28.023,315.833 27.404,315.833 27.379 C 315.833 27.257,315.647 27.431,314.413 28.708 M107.667 35.889 C 107.667 35.934,107.967 36.210,108.333 36.500 C 108.700 36.790,109.000 36.991,109.000 36.945 C 109.000 36.899,108.700 36.624,108.333 36.333 C 107.967 36.043,107.667 35.843,107.667 35.889 M117.333 43.175 C 117.911 43.567,118.241 43.681,117.833 43.348 C 117.604 43.161,117.342 43.007,117.250 43.006 C 117.158 43.006,117.196 43.081,117.333 43.175 M119.446 44.513 C 119.652 44.764,120.667 45.402,120.667 45.282 C 120.667 45.243,120.348 45.001,119.958 44.744 C 119.569 44.487,119.338 44.383,119.446 44.513 M321.412 45.536 C 320.773 46.197,320.429 46.590,320.648 46.411 C 321.320 45.859,322.790 44.333,322.650 44.333 C 322.608 44.333,322.051 44.874,321.412 45.536 M138.833 55.410 C 138.833 55.484,139.834 56.000,139.979 56.000 C 140.124 56.000,139.456 55.570,139.125 55.450 C 138.965 55.391,138.833 55.373,138.833 55.410 M196.730 57.750 C 196.731 58.850,196.758 59.278,196.790 58.702 C 196.823 58.125,196.823 57.225,196.790 56.702 C 196.757 56.178,196.730 56.650,196.730 57.750 M86.318 72.305 C 86.408 72.473,86.613 72.717,86.773 72.847 C 86.953 72.993,86.913 72.877,86.667 72.542 C 86.229 71.944,86.065 71.833,86.318 72.305 M91.258 78.379 C 91.303 78.495,91.507 78.692,91.712 78.817 C 92.066 79.033,92.065 79.024,91.679 78.605 C 91.228 78.116,91.139 78.068,91.258 78.379 M93.417 80.499 C 93.692 80.820,93.935 81.113,93.958 81.152 C 93.981 81.191,94.036 81.186,94.081 81.141 C 94.125 81.097,93.882 80.803,93.540 80.489 L 92.917 79.917 93.417 80.499 M79.833 81.408 C 79.833 81.454,80.058 81.608,80.333 81.750 C 80.608 81.892,80.833 81.971,80.833 81.925 C 80.833 81.879,80.608 81.726,80.333 81.583 C 80.058 81.441,79.833 81.362,79.833 81.408 M91.667 119.219 C 91.667 119.248,91.910 119.491,92.208 119.760 L 92.750 120.250 92.260 119.708 C 91.804 119.203,91.667 119.090,91.667 119.219 M97.167 124.052 C 97.167 124.093,97.442 124.337,97.779 124.594 C 98.115 124.850,98.338 124.975,98.273 124.871 C 98.142 124.658,97.167 123.936,97.167 124.052 M102.182 149.833 C 102.665 150.582,102.667 150.584,102.666 150.403 C 102.665 150.319,102.472 150.025,102.235 149.750 L 101.806 149.250 102.182 149.833 M280.160 154.010 C 279.960 154.290,279.825 154.547,279.859 154.581 C 279.893 154.615,280.089 154.386,280.295 154.071 C 280.760 153.363,280.655 153.315,280.160 154.010 M108.917 158.000 C 109.553 158.642,110.112 159.167,110.158 159.167 C 110.204 159.167,109.720 158.642,109.083 158.000 C 108.447 157.358,107.888 156.833,107.842 156.833 C 107.796 156.833,108.280 157.358,108.917 158.000 M113.000 161.713 C 113.000 161.745,113.244 161.949,113.542 162.167 C 113.877 162.413,113.993 162.453,113.847 162.273 C 113.625 161.999,113.000 161.586,113.000 161.713 M124.500 168.908 C 124.500 168.954,124.725 169.108,125.000 169.250 C 125.275 169.392,125.500 169.471,125.500 169.425 C 125.500 169.379,125.275 169.226,125.000 169.083 C 124.725 168.941,124.500 168.862,124.500 168.908 M262.744 175.708 L 261.917 176.583 262.792 175.756 C 263.273 175.301,263.667 174.908,263.667 174.881 C 263.667 174.757,263.512 174.895,262.744 175.708 M142.977 177.176 C 142.604 177.501,142.603 177.510,142.949 177.342 C 143.150 177.245,143.361 177.090,143.417 176.999 C 143.581 176.734,143.401 176.806,142.977 177.176 M139.414 179.607 C 138.563 180.171,138.264 180.468,138.928 180.089 C 139.512 179.756,140.292 179.176,140.164 179.170 C 140.116 179.168,139.779 179.365,139.414 179.607 M258.410 180.042 L 257.583 180.917 258.458 180.090 C 258.940 179.635,259.333 179.241,259.333 179.215 C 259.333 179.090,259.179 179.229,258.410 180.042 M246.667 190.187 C 246.086 190.696,246.086 190.697,246.620 190.341 C 246.915 190.145,247.201 189.913,247.255 189.826 C 247.416 189.565,247.282 189.647,246.667 190.187 M233.708 199.186 C 233.140 199.550,232.956 199.794,233.458 199.518 C 233.841 199.308,234.440 198.845,234.333 198.841 C 234.287 198.840,234.006 198.995,233.708 199.186 M76.833 204.151 C 77.205 204.446,77.833 204.718,77.833 204.585 C 77.833 204.557,77.515 204.373,77.125 204.177 C 76.472 203.849,76.449 203.847,76.833 204.151 M221.792 205.845 C 221.448 206.026,221.167 206.212,221.167 206.257 C 221.167 206.303,221.467 206.187,221.833 206.000 C 222.200 205.813,222.500 205.624,222.500 205.580 C 222.500 205.471,222.499 205.471,221.792 205.845 M144.542 222.115 C 144.702 222.157,144.965 222.157,145.125 222.115 C 145.285 222.073,145.154 222.039,144.833 222.039 C 144.512 222.039,144.381 222.073,144.542 222.115 M155.460 222.118 C 155.668 222.158,155.968 222.156,156.127 222.115 C 156.286 222.073,156.117 222.040,155.750 222.042 C 155.383 222.044,155.253 222.078,155.460 222.118 " stroke="none" fill="#cfeffc" fill-rule="evenodd"></path><path id="path2" d="M76.393 40.333 C 76.393 41.204,76.422 41.560,76.456 41.125 C 76.490 40.690,76.490 39.977,76.456 39.542 C 76.422 39.106,76.393 39.462,76.393 40.333 M91.667 119.052 C 91.667 119.081,91.910 119.325,92.208 119.594 L 92.750 120.083 92.260 119.542 C 91.804 119.037,91.667 118.923,91.667 119.052 M104.627 136.618 C 104.834 136.658,105.134 136.656,105.294 136.615 C 105.453 136.573,105.283 136.540,104.917 136.542 C 104.550 136.544,104.420 136.578,104.627 136.618 M106.542 136.615 C 106.702 136.657,106.965 136.657,107.125 136.615 C 107.285 136.573,107.154 136.539,106.833 136.539 C 106.513 136.539,106.381 136.573,106.542 136.615 M260.578 177.875 L 259.583 178.917 260.625 177.922 C 261.198 177.375,261.667 176.906,261.667 176.880 C 261.667 176.757,261.502 176.907,260.578 177.875 " stroke="none" fill="#63d0fc" fill-rule="evenodd"></path><path id="path3" d="M291.417 18.500 C 292.053 19.142,292.612 19.667,292.658 19.667 C 292.704 19.667,292.220 19.142,291.583 18.500 C 290.947 17.858,290.388 17.333,290.342 17.333 C 290.296 17.333,290.780 17.858,291.417 18.500 M213.073 18.542 L 212.583 19.083 213.125 18.594 C 213.630 18.138,213.743 18.000,213.615 18.000 C 213.586 18.000,213.342 18.244,213.073 18.542 M91.833 21.552 C 91.833 21.581,92.077 21.825,92.375 22.094 L 92.917 22.583 92.427 22.042 C 91.971 21.537,91.833 21.423,91.833 21.552 M97.250 27.000 C 97.608 27.367,97.938 27.667,97.984 27.667 C 98.030 27.667,97.775 27.367,97.417 27.000 C 97.059 26.633,96.728 26.333,96.682 26.333 C 96.637 26.333,96.892 26.633,97.250 27.000 M315.406 27.542 L 314.917 28.083 315.458 27.594 C 315.963 27.138,316.077 27.000,315.948 27.000 C 315.919 27.000,315.675 27.244,315.406 27.542 M313.240 29.708 L 312.750 30.250 313.292 29.760 C 313.797 29.304,313.910 29.167,313.781 29.167 C 313.752 29.167,313.509 29.410,313.240 29.708 M320.075 46.708 L 319.417 47.417 320.125 46.758 C 320.515 46.395,320.833 46.077,320.833 46.050 C 320.833 45.923,320.688 46.050,320.075 46.708 M307.887 60.667 C 307.887 61.262,307.917 61.506,307.954 61.208 C 307.991 60.910,307.991 60.423,307.954 60.125 C 307.917 59.827,307.887 60.071,307.887 60.667 M197.268 65.417 C 197.405 66.029,197.501 66.163,197.497 65.736 C 197.496 65.560,197.419 65.304,197.326 65.167 C 197.202 64.984,197.187 65.052,197.268 65.417 M307.887 67.500 C 307.887 68.096,307.917 68.340,307.954 68.042 C 307.991 67.744,307.991 67.256,307.954 66.958 C 307.917 66.660,307.887 66.904,307.887 67.500 M75.887 80.667 C 75.887 81.262,75.917 81.506,75.954 81.208 C 75.991 80.910,75.991 80.423,75.954 80.125 C 75.917 79.827,75.887 80.071,75.887 80.667 M95.333 135.630 C 95.333 135.702,95.540 135.772,95.792 135.786 C 96.187 135.808,96.204 135.792,95.917 135.667 C 95.483 135.480,95.333 135.470,95.333 135.630 M109.000 157.917 C 109.775 158.696,110.447 159.333,110.493 159.333 C 110.538 159.333,109.942 158.696,109.167 157.917 C 108.392 157.137,107.720 156.500,107.674 156.500 C 107.628 156.500,108.225 157.137,109.000 157.917 M263.000 175.250 C 262.595 175.662,262.301 176.000,262.347 176.000 C 262.393 176.000,262.762 175.662,263.167 175.250 C 263.572 174.838,263.865 174.500,263.819 174.500 C 263.774 174.500,263.405 174.838,263.000 175.250 M257.824 180.458 L 257.250 181.083 257.875 180.509 C 258.219 180.193,258.500 179.912,258.500 179.884 C 258.500 179.757,258.359 179.877,257.824 180.458 M67.042 197.448 C 67.202 197.490,67.465 197.490,67.625 197.448 C 67.785 197.406,67.654 197.372,67.333 197.372 C 67.012 197.372,66.881 197.406,67.042 197.448 M74.542 197.953 C 74.794 197.991,75.206 197.991,75.458 197.953 C 75.710 197.915,75.504 197.883,75.000 197.883 C 74.496 197.883,74.290 197.915,74.542 197.953 M81.377 197.953 C 81.631 197.991,82.006 197.990,82.211 197.951 C 82.416 197.911,82.208 197.880,81.750 197.881 C 81.292 197.882,81.124 197.915,81.377 197.953 M146.794 222.118 C 147.001 222.158,147.301 222.156,147.460 222.115 C 147.620 222.073,147.450 222.040,147.083 222.042 C 146.717 222.044,146.586 222.078,146.794 222.118 M153.127 222.118 C 153.334 222.158,153.634 222.156,153.794 222.115 C 153.953 222.073,153.783 222.040,153.417 222.042 C 153.050 222.044,152.920 222.078,153.127 222.118 " stroke="none" fill="#05bef9" fill-rule="evenodd"></path><path id="path4" d="M76.042 197.948 C 76.202 197.990,76.465 197.990,76.625 197.948 C 76.785 197.906,76.654 197.872,76.333 197.872 C 76.012 197.872,75.881 197.906,76.042 197.948 M80.127 197.951 C 80.334 197.991,80.634 197.990,80.794 197.948 C 80.953 197.906,80.783 197.874,80.417 197.875 C 80.050 197.877,79.920 197.911,80.127 197.951 " stroke="none" fill="#39ccfc" fill-rule="evenodd"></path></g></svg>