<svg id="Layer_1" data-name="Layer 1" xmlns="http://www.w3.org/2000/svg" viewBox="0 0 1009.4 704.23"><defs><style>.cls-1{fill:none;}.cls-1,.cls-10,.cls-5,.cls-6,.cls-7,.cls-8,.cls-9{stroke:#000;stroke-miterlimit:10;}.cls-2,.cls-3{font-size:18px;font-family:PlayfairDisplay-Regular, Playfair Display;}.cls-2,.cls-26,.cls-3,.cls-35{fill:#231f20;}.cls-12,.cls-3{letter-spacing:-0.01em;}.cls-4{letter-spacing:0em;}.cls-5{fill:#e7e7e2;}.cls-10,.cls-5,.cls-6,.cls-7,.cls-8,.cls-9{stroke-width:0.5px;}.cls-6{fill:#c0cabd;}.cls-7{fill:#829489;}.cls-8{fill:#998d89;}.cls-9{fill:#6d6461;}.cls-10{fill:#4e5469;}.cls-11{letter-spacing:-0.01em;}.cls-13{letter-spacing:-0.03em;}.cls-14{letter-spacing:-0.02em;}.cls-15{letter-spacing:-0.02em;}.cls-16{letter-spacing:-0.03em;}.cls-17{letter-spacing:-0.03em;}.cls-18{letter-spacing:0em;}.cls-19{letter-spacing:-0.02em;}.cls-20{letter-spacing:0em;}.cls-21{letter-spacing:-0.01em;}.cls-22{letter-spacing:-0.02em;}.cls-23{letter-spacing:-0.01em;}.cls-24{letter-spacing:-0.01em;}.cls-25{letter-spacing:-0.02em;}.cls-26{font-size:25px;font-family:PlayfairDisplay-Medium, Playfair Display;font-weight:500;}.cls-27{letter-spacing:-0.01em;}.cls-28{letter-spacing:0em;}.cls-29{letter-spacing:0em;}.cls-30{letter-spacing:-0.01em;}.cls-31{letter-spacing:0em;}.cls-32{letter-spacing:-0.02em;}.cls-33{letter-spacing:-0.02em;}.cls-34{letter-spacing:-0.01em;}.cls-35{font-size:35px;font-family:PlayfairDisplay-Bold, Playfair Display;font-weight:700;}.cls-36{letter-spacing:-0.02em;}.cls-37{letter-spacing:-0.01em;}.cls-38{letter-spacing:-0.02em;}.cls-39{letter-spacing:-0.02em;}.cls-40{letter-spacing:-0.02em;}.cls-41{letter-spacing:-0.01em;}.cls-42{letter-spacing:-0.02em;}.cls-43{letter-spacing:-0.01em;}</style></defs><line class="cls-1" x1="91.9" y1="618.81" x2="773.46" y2="618.81"/><line class="cls-1" x1="91.9" y1="618.81" x2="91.9" y2="606.37"/><line class="cls-1" x1="189.26" y1="618.81" x2="189.26" y2="606.37"/><line class="cls-1" x1="286.63" y1="618.81" x2="286.63" y2="606.37"/><line class="cls-1" x1="384" y1="618.81" x2="384" y2="606.37"/><line class="cls-1" x1="481.36" y1="618.81" x2="481.36" y2="606.37"/><line class="cls-1" x1="578.73" y1="618.81" x2="578.73" y2="606.37"/><line class="cls-1" x1="676.1" y1="618.81" x2="676.1" y2="606.37"/><line class="cls-1" x1="773.46" y1="618.81" x2="773.46" y2="606.37"/><text class="cls-2" transform="translate(70.45 623.79)">0</text><text class="cls-2" transform="translate(62.98 524.27)">50</text><text class="cls-2" transform="translate(52.99 424.76)">100</text><text class="cls-3" transform="translate(56.54 325.24)">1<tspan class="cls-4" x="6.44" y="0">50</tspan></text><text class="cls-2" transform="translate(51.03 225.73)">200</text><text class="cls-2" transform="translate(54.36 126.21)">250</text><line class="cls-1" x1="91.9" y1="618.81" x2="91.9" y2="121.23"/><line class="cls-1" x1="91.9" y1="618.81" x2="108.94" y2="618.81"/><line class="cls-1" x1="91.9" y1="519.29" x2="108.94" y2="519.29"/><line class="cls-1" x1="91.9" y1="419.78" x2="108.94" y2="419.78"/><line class="cls-1" x1="91.9" y1="320.26" x2="108.94" y2="320.26"/><line class="cls-1" x1="91.9" y1="220.75" x2="108.94" y2="220.75"/><line class="cls-1" x1="91.9" y1="121.23" x2="108.94" y2="121.23"/><rect class="cls-5" x="842.66" y="126.11" width="40" height="40"/><rect class="cls-5" x="109.42" y="604.88" width="62.31" height="1.99"/><rect class="cls-5" x="304.16" y="250.6" width="62.31" height="29.85"/><rect class="cls-5" x="401.52" y="141.14" width="62.31" height="35.83"/><rect class="cls-5" x="498.89" y="242.64" width="62.31" height="27.86"/><rect class="cls-6" x="842.66" y="200.75" width="40" height="40"/><rect class="cls-6" x="206.79" y="594.93" width="62.31" height="7.96"/><rect class="cls-6" x="304.16" y="280.46" width="62.31" height="53.74"/><rect class="cls-6" x="401.52" y="176.96" width="62.31" height="55.73"/><rect class="cls-6" x="498.89" y="270.51" width="62.31" height="77.62"/><rect class="cls-7" x="842.66" y="275.38" width="40" height="40"/><rect class="cls-7" x="304.16" y="334.2" width="62.31" height="3.98"/><rect class="cls-7" x="401.52" y="232.69" width="62.31" height="1.99"/><rect class="cls-7" x="498.89" y="348.13" width="62.31" height="9.95"/><rect class="cls-8" x="842.66" y="350.02" width="40" height="40"/><rect class="cls-8" x="109.42" y="606.87" width="62.31" height="1.99"/><rect class="cls-8" x="206.79" y="602.89" width="62.31" height="7.96"/><rect class="cls-8" x="304.16" y="338.18" width="62.31" height="169.18"/><rect class="cls-8" x="401.52" y="234.68" width="62.31" height="187.09"/><rect class="cls-8" x="498.89" y="358.08" width="62.31" height="145.29"/><rect class="cls-8" x="596.26" y="590.95" width="62.31" height="3.98"/><rect class="cls-8" x="693.62" y="610.85" width="62.31" height="5.97"/><rect class="cls-9" x="842.66" y="424.66" width="40" height="40"/><rect class="cls-9" x="109.42" y="608.86" width="62.31" height="3.98"/><rect class="cls-9" x="206.79" y="610.85" width="62.31" height="3.98"/><rect class="cls-9" x="304.16" y="507.35" width="62.31" height="105.49"/><rect class="cls-9" x="401.52" y="421.77" width="62.31" height="187.09"/><rect class="cls-9" x="498.89" y="503.37" width="62.31" height="105.49"/><rect class="cls-9" x="596.26" y="594.93" width="62.31" height="1.99"/><rect class="cls-10" x="842.66" y="499.29" width="40" height="40"/><rect class="cls-10" x="109.42" y="612.84" width="62.31" height="5.97"/><rect class="cls-10" x="206.79" y="614.83" width="62.31" height="3.98"/><rect class="cls-10" x="304.16" y="612.84" width="62.31" height="5.97"/><rect class="cls-10" x="401.52" y="608.86" width="62.31" height="9.95"/><rect class="cls-10" x="498.89" y="608.86" width="62.31" height="9.95"/><rect class="cls-10" x="596.26" y="596.92" width="62.31" height="21.89"/><rect class="cls-10" x="693.62" y="616.82" width="62.31" height="1.99"/><text class="cls-2" transform="translate(890.91 150.09)">Afric<tspan class="cls-11" x="39.35" y="0">a</tspan></text><text class="cls-2" transform="translate(890.91 224.73)">Asi<tspan class="cls-12" x="24.66" y="0">a</tspan></text><text class="cls-2" transform="translate(890.91 299.37)"><tspan class="cls-13">A</tspan><tspan x="10.8" y="0">ustrali</tspan><tspan class="cls-11" x="63.07" y="0">a</tspan></text><text class="cls-2" transform="translate(890.91 374)">Eu<tspan class="cls-14" x="21.42" y="0">r</tspan><tspan x="29.07" y="0">ope</tspan></text><text class="cls-2" transform="translate(890.91 448.64)"><tspan class="cls-15">N</tspan><tspan x="12.38" y="0">orth</tspan><tspan class="cls-16" x="47.21" y="0"> </tspan><tspan x="51.08" y="0">Americ</tspan><tspan class="cls-12" x="109.55" y="0">a</tspan></text><text class="cls-2" transform="translate(890.91 523.27)">South<tspan class="cls-17" x="47" y="0"> </tspan><tspan x="50.87" y="0">Americ</tspan><tspan class="cls-12" x="109.33" y="0">a</tspan></text><text class="cls-2" transform="translate(688.86 650.55)"><tspan class="cls-18">M</tspan><tspan x="15.59" y="0">a</tspan><tspan class="cls-19" x="24.55" y="0">r</tspan><tspan class="cls-20" x="32.2" y="0">ch 19</tspan></text><text class="cls-2" transform="translate(591.4 650.55)"><tspan class="cls-18">M</tspan><tspan x="15.59" y="0">a</tspan><tspan class="cls-19" x="24.55" y="0">r</tspan><tspan class="cls-20" x="32.2" y="0">ch 18</tspan></text><text class="cls-2" transform="translate(495.15 650.55)"><tspan class="cls-18">M</tspan><tspan x="15.59" y="0">a</tspan><tspan class="cls-19" x="24.55" y="0">r</tspan><tspan class="cls-20" x="32.2" y="0">ch 1</tspan><tspan class="cls-21" x="62.68" y="0">7</tspan></text><text class="cls-2" transform="translate(396.69 650.55)"><tspan class="cls-18">M</tspan><tspan x="15.59" y="0">a</tspan><tspan class="cls-19" x="24.55" y="0">r</tspan><tspan class="cls-20" x="32.2" y="0">ch 16</tspan></text><text class="cls-2" transform="translate(300.48 650.55)"><tspan class="cls-18">M</tspan><tspan x="15.59" y="0">a</tspan><tspan class="cls-22" x="24.55" y="0">r</tspan><tspan x="32.2" y="0">ch </tspan><tspan class="cls-23" x="56.02" y="0">1</tspan><tspan class="cls-24" x="62.46" y="0">5</tspan></text><text class="cls-2" transform="translate(202.16 650.55)"><tspan class="cls-18">M</tspan><tspan x="15.59" y="0">a</tspan><tspan class="cls-22" x="24.55" y="0">r</tspan><tspan x="32.2" y="0">ch 14</tspan></text><text class="cls-2" transform="translate(105.34 650.55)"><tspan class="cls-18">M</tspan><tspan x="15.59" y="0">a</tspan><tspan class="cls-22" x="24.55" y="0">r</tspan><tspan x="32.2" y="0">ch </tspan><tspan class="cls-25" x="56.02" y="0">1</tspan><tspan x="62.37" y="0">3</tspan></text><text class="cls-26" transform="translate(408.06 698.2)"><tspan class="cls-27">D</tspan><tspan x="18.38" y="0">a</tspan><tspan class="cls-28" x="31" y="0">t</tspan><tspan class="cls-29" x="39.8" y="0">e</tspan></text><text class="cls-26" transform="translate(21.35 464.42) rotate(-90)"><tspan class="cls-30">N</tspan><tspan x="17.4" y="0">umb</tspan><tspan class="cls-31" x="68.75" y="0">e</tspan><tspan class="cls-32" x="81.32" y="0">r</tspan><tspan x="92.1" y="0" xml:space="preserve"> of</tspan><tspan class="cls-33" x="120.52" y="0"> </tspan><tspan x="126.02" y="0">T</tspan><tspan class="cls-34" x="141.95" y="0">w</tspan><tspan class="cls-29" x="161.07" y="0">eets</tspan></text><text class="cls-35" transform="translate(170.31 29.89)"><tspan class="cls-36">N</tspan><tspan x="24.71" y="0">umb</tspan><tspan class="cls-37" x="98.1" y="0">e</tspan><tspan class="cls-38" x="115.53" y="0">r</tspan><tspan x="131.14" y="0" xml:space="preserve"> of</tspan><tspan class="cls-39" x="171.39" y="0"> </tspan><tspan x="178.74" y="0">T</tspan><tspan class="cls-40" x="202.12" y="0">w</tspan><tspan x="229.14" y="0">eets p</tspan><tspan class="cls-41" x="322.07" y="0">e</tspan><tspan class="cls-42" x="339.5" y="0">r</tspan><tspan x="355.11" y="0" xml:space="preserve"> Contin</tspan><tspan class="cls-41" x="474.03" y="0">e</tspan><tspan x="491.46" y="0">n</tspan><tspan class="cls-43" x="512.95" y="0">t</tspan></text></svg>