<?xml version="1.0" encoding="utf-8"?>
<!-- Generator: Adobe Illustrator 24.2.1, SVG Export Plug-In . SVG Version: 6.00 Build 0)  -->
<svg version="1.1" id="Layer_1" xmlns="http://www.w3.org/2000/svg" xmlns:xlink="http://www.w3.org/1999/xlink" x="0px" y="0px"
	 viewBox="0 0 2096.1 2238.3" style="enable-background:new 0 0 2096.1 2238.3;" xml:space="preserve">
<style type="text/css">
	.st0{fill:none;stroke:#000000;stroke-width:2;stroke-miterlimit:10;}
	.st1{fill:none;stroke:#000000;stroke-miterlimit:10;}
	.st2{font-family:'ArialMT';}
	.st3{font-size:25px;}
	.st4{opacity:0.9;fill:#D7D8CD;stroke:#000000;stroke-width:2;stroke-miterlimit:10;}
	.st5{opacity:0.9;fill:#F5C870;stroke:#000000;stroke-width:2;stroke-miterlimit:10;}
	.st6{opacity:0.9;fill:#9AB576;stroke:#000000;stroke-width:2;stroke-miterlimit:10;}
	.st7{opacity:0.9;fill:#5A8494;stroke:#000000;stroke-width:2;stroke-miterlimit:10;}
	.st8{opacity:0.9;fill:#8E4B8F;stroke:#000000;stroke-width:2;stroke-miterlimit:10;}
	.st9{opacity:0.9;fill:#AD3D2F;stroke:#000000;stroke-width:2;stroke-miterlimit:10;}
	.st10{font-family:'Arial-BoldMT';}
	.st11{font-size:40px;}
	.st12{font-family:'Arial-Black';}
	.st13{font-size:50px;}
</style>
<g>
	<line class="st0" x1="196.5" y1="2073.2" x2="1514" y2="2073.2"/>
	<g>
		<g>
			<line class="st1" x1="196.5" y1="2073.2" x2="196.5" y2="2059"/>
			<line class="st0" x1="361.2" y1="2073.2" x2="361.2" y2="2059"/>
			<line class="st0" x1="525.9" y1="2073.2" x2="525.9" y2="2059"/>
			<line class="st0" x1="690.6" y1="2073.2" x2="690.6" y2="2059"/>
			<line class="st0" x1="855.2" y1="2073.2" x2="855.2" y2="2059"/>
			<line class="st0" x1="1019.9" y1="2073.2" x2="1019.9" y2="2059"/>
			<line class="st0" x1="1184.6" y1="2073.2" x2="1184.6" y2="2059"/>
			<line class="st0" x1="1349.3" y1="2073.2" x2="1349.3" y2="2059"/>
			<line class="st0" x1="1514" y1="2073.2" x2="1514" y2="2059"/>
		</g>
		<g>
		</g>
	</g>
</g>
<g>
	<text transform="matrix(1 0 0 1 171.9326 2079.3342)" class="st2 st3">0</text>
	<text transform="matrix(1 0 0 1 158.0287 1725.5706)" class="st2 st3">50</text>
	<text transform="matrix(1 0 0 1 144.125 1369.4207)" class="st2 st3">100</text>
	<text transform="matrix(1 0 0 1 144.1248 1012.5355)" class="st2 st3">150</text>
	<text transform="matrix(1 0 0 1 144.1249 658.7719)" class="st2 st3">200</text>
	<text transform="matrix(1 0 0 1 144.1251 303.8151)" class="st2 st3">250</text>
</g>
<line class="st0" x1="196.5" y1="2073.2" x2="196.5" y2="295.8"/>
<g>
	<g>
		<line class="st1" x1="196.5" y1="2073.2" x2="229.4" y2="2073.2"/>
		<line class="st0" x1="196.5" y1="1717.8" x2="229.4" y2="1717.8"/>
		<line class="st0" x1="196.5" y1="1362.3" x2="229.4" y2="1362.3"/>
		<line class="st0" x1="196.5" y1="1006.8" x2="229.4" y2="1006.8"/>
		<line class="st0" x1="196.5" y1="651.3" x2="229.4" y2="651.3"/>
		<line class="st0" x1="196.5" y1="295.8" x2="229.4" y2="295.8"/>
	</g>
	<g>
	</g>
</g>
<g>
	<g>
		<rect x="1646.4" y="518.9" class="st4" width="80" height="80"/>
		<g>
			<rect x="377.6" y="2002.1" class="st4" width="131.8" height="21.3"/>
			<rect x="1036.4" y="1376.5" class="st4" width="131.8" height="21.3"/>
			<rect x="1201.1" y="338.5" class="st4" width="131.8" height="85.3"/>
			<rect x="1365.8" y="829" class="st4" width="131.8" height="42.7"/>
		</g>
	</g>
	<g>
		<rect x="1646.4" y="611.3" class="st5" width="80" height="80"/>
		<g>
			<rect x="377.6" y="2023.5" class="st5" width="131.8" height="14.2"/>
			<rect x="871.7" y="1987.9" class="st5" width="131.8" height="14.2"/>
			<rect x="1036.4" y="1397.8" class="st5" width="131.8" height="56.9"/>
			<rect x="1201.1" y="423.8" class="st5" width="131.8" height="277.3"/>
			<rect x="1365.8" y="871.7" class="st5" width="131.8" height="156.4"/>
		</g>
	</g>
	<g>
		<rect x="1646.4" y="703.1" class="st6" width="80" height="80"/>
		<g>
			<rect x="1201.1" y="701.1" class="st6" width="131.8" height="28.4"/>
			<rect x="1365.8" y="1028.1" class="st6" width="131.8" height="35.5"/>
		</g>
	</g>
	<g>
		<rect x="1646.4" y="795" class="st7" width="80" height="80"/>
		<g>
			<rect x="377.6" y="2037.7" class="st7" width="131.8" height="14.2"/>
			<rect x="542.3" y="2051.9" class="st7" width="131.8" height="7.1"/>
			<rect x="707" y="2044.8" class="st7" width="131.8" height="7.1"/>
			<rect x="871.7" y="2002.1" class="st7" width="131.8" height="28.4"/>
			<rect x="1036.4" y="1454.7" class="st7" width="131.8" height="348.4"/>
			<rect x="1201.1" y="729.5" class="st7" width="131.8" height="597.2"/>
			<rect x="1365.8" y="1063.7" class="st7" width="131.8" height="504.8"/>
		</g>
	</g>
	<g>
		<rect x="1646.4" y="887" class="st8" width="80" height="80"/>
		<g>
			<rect x="213" y="2059" class="st8" width="131.8" height="7.1"/>
			<rect x="377.6" y="2051.9" class="st8" width="131.8" height="7.1"/>
			<rect x="707" y="2051.9" class="st8" width="131.8" height="7.1"/>
			<rect x="871.7" y="2030.6" class="st8" width="131.8" height="14.2"/>
			<rect x="1036.4" y="1803.1" class="st8" width="131.8" height="234.6"/>
			<rect x="1201.1" y="1326.7" class="st8" width="131.8" height="711"/>
			<rect x="1365.8" y="1568.5" class="st8" width="131.8" height="483.5"/>
		</g>
	</g>
	<g>
		<rect x="1646.4" y="978.8" class="st9" width="80" height="80"/>
		<g>
			<rect x="213" y="2066.1" class="st9" width="131.8" height="7.1"/>
			<rect x="377.6" y="2059" class="st9" width="131.8" height="14.2"/>
			<rect x="542.3" y="2059" class="st9" width="131.8" height="14.2"/>
			<rect x="707" y="2059" class="st9" width="131.8" height="14.2"/>
			<rect x="871.7" y="2044.8" class="st9" width="131.8" height="28.4"/>
			<rect x="1036.4" y="2037.7" class="st9" width="131.8" height="35.5"/>
			<rect x="1201.1" y="2037.7" class="st9" width="131.8" height="35.5"/>
			<rect x="1365.8" y="2051.9" class="st9" width="131.8" height="21.3"/>
		</g>
	</g>
</g>
<g>
	<g>
	</g>
	<g>
	</g>
	<g>
	</g>
	<g>
	</g>
	<g>
	</g>
	<g>
	</g>
</g>
<g>
</g>
<text transform="matrix(1 0 0 1 1745.4878 568.1064)" class="st2 st3">Africa</text>
<text transform="matrix(1 0 0 1 1745.4879 660.3612)" class="st2 st3">Asia</text>
<text transform="matrix(1 0 0 1 1745.4879 752.9979)" class="st2 st3">Australia</text>
<text transform="matrix(1 0 0 1 1745.4879 845.6346)" class="st2 st3">Europe</text>
<text transform="matrix(1 0 0 1 1745.4879 937.2714)" class="st2 st3">North America</text>
<text transform="matrix(1 0 0 1 1745.4879 1027.9071)" class="st2 st3">South America</text>
<g>
	<text transform="matrix(1 0 0 1 1379.5599 2101.9758)" class="st2 st3">March 28</text>
	<text transform="matrix(1 0 0 1 1214.8693 2101.9761)" class="st2 st3">March 27</text>
	<text transform="matrix(1 0 0 1 1050.1787 2101.9763)" class="st2 st3">March 26</text>
	<text transform="matrix(1 0 0 1 885.4881 2101.9768)" class="st2 st3">March 25</text>
	<text transform="matrix(1 0 0 1 720.7975 2101.9771)" class="st2 st3">March 24</text>
	<text transform="matrix(1 0 0 1 556.1069 2101.9758)" class="st2 st3">March 23</text>
	<text transform="matrix(1 0 0 1 391.4163 2101.9758)" class="st2 st3">March 22</text>
	<text transform="matrix(1 0 0 1 226.7252 2101.9773)" class="st2 st3">March 21</text>
</g>
<g>
	<g>
		<line class="st0" x1="2421.9" y1="2070.2" x2="3103.4" y2="2070.2"/>
		<g>
			<g>
				<line class="st1" x1="2421.9" y1="2070.2" x2="2421.9" y2="2057.8"/>
				<line class="st0" x1="2507" y1="2070.2" x2="2507" y2="2057.8"/>
				<line class="st0" x1="2592.2" y1="2070.2" x2="2592.2" y2="2057.8"/>
				<line class="st0" x1="2677.4" y1="2070.2" x2="2677.4" y2="2057.8"/>
				<line class="st0" x1="2762.6" y1="2070.2" x2="2762.6" y2="2057.8"/>
				<line class="st0" x1="2847.8" y1="2070.2" x2="2847.8" y2="2057.8"/>
				<line class="st0" x1="2933" y1="2070.2" x2="2933" y2="2057.8"/>
				<line class="st0" x1="3018.2" y1="2070.2" x2="3018.2" y2="2057.8"/>
				<line class="st0" x1="3103.4" y1="2070.2" x2="3103.4" y2="2057.8"/>
			</g>
			<g>
			</g>
		</g>
	</g>
	<g>
		<g>
			<text transform="matrix(1 0 0 1 2400.9434 2082.2214)" style="font-family:'MyriadPro-Regular'; font-size:20px;">0</text>
			<text transform="matrix(1 0 0 1 2390.6836 1982.7057)" style="font-family:'MyriadPro-Regular'; font-size:20px;">50</text>
			<text transform="matrix(1 0 0 1 2380.4238 1883.191)" style="font-family:'MyriadPro-Regular'; font-size:20px;">100</text>
			<text transform="matrix(1 0 0 1 2380.4238 1783.6754)" style="font-family:'MyriadPro-Regular'; font-size:20px;">150</text>
			<text transform="matrix(1 0 0 1 2380.4238 1684.1598)" style="font-family:'MyriadPro-Regular'; font-size:20px;">200</text>
			<text transform="matrix(1 0 0 1 2380.4238 1584.6447)" style="font-family:'MyriadPro-Regular'; font-size:20px;">250</text>
		</g>
		<line class="st0" x1="2421.9" y1="2070.2" x2="2421.9" y2="1572.7"/>
		<g>
			<g>
				<line class="st1" x1="2421.9" y1="2070.2" x2="2438.9" y2="2070.2"/>
				<line class="st0" x1="2421.9" y1="1970.7" x2="2438.9" y2="1970.7"/>
				<line class="st0" x1="2421.9" y1="1871.2" x2="2438.9" y2="1871.2"/>
				<line class="st0" x1="2421.9" y1="1771.7" x2="2438.9" y2="1771.7"/>
				<line class="st0" x1="2421.9" y1="1672.2" x2="2438.9" y2="1672.2"/>
				<line class="st0" x1="2421.9" y1="1572.7" x2="2438.9" y2="1572.7"/>
			</g>
			<g>
			</g>
		</g>
	</g>
	<g>
		<g>
			<rect x="3150" y="1572.7" class="st4" width="85.2" height="49.8"/>
			<g>
				<rect x="2515.6" y="2050.3" class="st4" width="68.2" height="6"/>
				<rect x="2856.3" y="1875.2" class="st4" width="68.2" height="6"/>
				<rect x="2941.5" y="1584.6" class="st4" width="68.2" height="23.9"/>
				<rect x="3026.7" y="1721.9" class="st4" width="68.2" height="11.9"/>
			</g>
		</g>
		<g>
			<rect x="3150" y="1647.3" class="st5" width="85.2" height="49.8"/>
			<g>
				<rect x="2515.6" y="2056.3" class="st5" width="68.2" height="4"/>
				<rect x="2771.2" y="2046.4" class="st5" width="68.2" height="4"/>
				<rect x="2856.3" y="1881.2" class="st5" width="68.2" height="15.9"/>
				<rect x="2941.5" y="1608.5" class="st5" width="68.2" height="77.6"/>
				<rect x="3026.7" y="1733.9" class="st5" width="68.2" height="43.8"/>
			</g>
		</g>
		<g>
			<rect x="3150" y="1721.9" class="st6" width="85.2" height="49.8"/>
			<g>
				<rect x="2941.5" y="1686.1" class="st6" width="68.2" height="8"/>
				<rect x="3026.7" y="1777.7" class="st6" width="68.2" height="10"/>
			</g>
		</g>
		<g>
			<rect x="3150" y="1796.6" class="st7" width="85.2" height="49.8"/>
			<g>
				<rect x="2515.6" y="2060.3" class="st7" width="68.2" height="4"/>
				<rect x="2600.8" y="2064.3" class="st7" width="68.2" height="2"/>
				<rect x="2686" y="2062.3" class="st7" width="68.2" height="2"/>
				<rect x="2771.2" y="2050.3" class="st7" width="68.2" height="8"/>
				<rect x="2856.3" y="1897.1" class="st7" width="68.2" height="97.5"/>
				<rect x="2941.5" y="1694.1" class="st7" width="68.2" height="167.2"/>
				<rect x="3026.7" y="1787.6" class="st7" width="68.2" height="141.3"/>
			</g>
		</g>
		<g>
			<rect x="3150" y="1871.2" class="st8" width="85.2" height="49.8"/>
			<g>
				<rect x="2430.4" y="2066.3" class="st8" width="68.2" height="2"/>
				<rect x="2515.6" y="2064.3" class="st8" width="68.2" height="2"/>
				<rect x="2686" y="2064.3" class="st8" width="68.2" height="2"/>
				<rect x="2771.2" y="2058.3" class="st8" width="68.2" height="4"/>
				<rect x="2856.3" y="1994.6" class="st8" width="68.2" height="65.7"/>
				<rect x="2941.5" y="1861.3" class="st8" width="68.2" height="199"/>
				<rect x="3026.7" y="1928.9" class="st8" width="68.2" height="135.3"/>
			</g>
		</g>
		<g>
			<rect x="3150" y="1945.8" class="st9" width="85.2" height="49.8"/>
			<g>
				<rect x="2430.4" y="2068.3" class="st9" width="68.2" height="2"/>
				<rect x="2515.6" y="2066.3" class="st9" width="68.2" height="4"/>
				<rect x="2600.8" y="2066.3" class="st9" width="68.2" height="4"/>
				<rect x="2686" y="2066.3" class="st9" width="68.2" height="4"/>
				<rect x="2771.2" y="2062.3" class="st9" width="68.2" height="8"/>
				<rect x="2856.3" y="2060.3" class="st9" width="68.2" height="10"/>
				<rect x="2941.5" y="2060.3" class="st9" width="68.2" height="10"/>
				<rect x="3026.7" y="2064.3" class="st9" width="68.2" height="6"/>
			</g>
		</g>
	</g>
	<g>
		<g>
		</g>
		<g>
		</g>
		<g>
		</g>
		<g>
		</g>
		<g>
		</g>
		<g>
		</g>
	</g>
	<g>
		<g>
		</g>
		<text transform="matrix(1 0 0 1 3245.8599 1609.5231)"><tspan x="0" y="0" style="font-family:'MyriadPro-Regular'; font-size:20px;">A</tspan><tspan x="12.1" y="0" style="font-family:'MyriadPro-Regular'; font-size:20px;">f</tspan><tspan x="17.9" y="0" style="font-family:'MyriadPro-Regular'; font-size:20px;">r</tspan><tspan x="24.6" y="0" style="font-family:'MyriadPro-Regular'; font-size:20px;">ica</tspan></text>
		<text transform="matrix(1 0 0 1 3245.8599 1684.1598)"><tspan x="0" y="0" style="font-family:'MyriadPro-Regular'; font-size:20px;">A</tspan><tspan x="12.1" y="0" style="font-family:'MyriadPro-Regular'; font-size:20px;">sia</tspan></text>
		<text transform="matrix(1 0 0 1 3245.8599 1758.7965)"><tspan x="0" y="0" style="font-family:'MyriadPro-Regular'; font-size:20px;">A</tspan><tspan x="12" y="0" style="font-family:'MyriadPro-Regular'; font-size:20px;">ust</tspan><tspan x="37.6" y="0" style="font-family:'MyriadPro-Regular'; font-size:20px;">r</tspan><tspan x="44" y="0" style="font-family:'MyriadPro-Regular'; font-size:20px;">alia</tspan></text>
		<text transform="matrix(1 0 0 1 3245.8599 1833.4332)"><tspan x="0" y="0" style="font-family:'MyriadPro-Regular'; font-size:20px;">E</tspan><tspan x="9.7" y="0" style="font-family:'MyriadPro-Regular'; font-size:20px;">u</tspan><tspan x="20.7" y="0" style="font-family:'MyriadPro-Regular'; font-size:20px;">r</tspan><tspan x="27.1" y="0" style="font-family:'MyriadPro-Regular'; font-size:20px;">ope</tspan></text>
		<text transform="matrix(1 0 0 1 3245.8599 1908.0699)"><tspan x="0" y="0" style="font-family:'MyriadPro-Regular'; font-size:20px;">No</tspan><tspan x="24.1" y="0" style="font-family:'MyriadPro-Regular'; font-size:20px;">r</tspan><tspan x="31.2" y="0" style="font-family:'MyriadPro-Regular'; font-size:20px;">th </tspan><tspan x="53.1" y="0" style="font-family:'MyriadPro-Regular'; font-size:20px;">A</tspan><tspan x="65.3" y="0" style="font-family:'MyriadPro-Regular'; font-size:20px;">me</tspan><tspan x="92" y="0" style="font-family:'MyriadPro-Regular'; font-size:20px;">r</tspan><tspan x="98.6" y="0" style="font-family:'MyriadPro-Regular'; font-size:20px;">ica</tspan></text>
		<text transform="matrix(1 0 0 1 3245.8599 1982.7057)"><tspan x="0" y="0" style="font-family:'MyriadPro-Regular'; font-size:20px;">S</tspan><tspan x="10" y="0" style="font-family:'MyriadPro-Regular'; font-size:20px;">outh </tspan><tspan x="53.9" y="0" style="font-family:'MyriadPro-Regular'; font-size:20px;">A</tspan><tspan x="66.1" y="0" style="font-family:'MyriadPro-Regular'; font-size:20px;">me</tspan><tspan x="92.8" y="0" style="font-family:'MyriadPro-Regular'; font-size:20px;">r</tspan><tspan x="99.4" y="0" style="font-family:'MyriadPro-Regular'; font-size:20px;">ica</tspan></text>
	</g>
	<g>
		<text transform="matrix(1 0 0 1 3022.3198 2101.9773)"><tspan x="0" y="0" style="font-family:'MyriadPro-Regular'; font-size:20px;">M</tspan><tspan x="16.2" y="0" style="font-family:'MyriadPro-Regular'; font-size:20px;">a</tspan><tspan x="25.8" y="0" style="font-family:'MyriadPro-Regular'; font-size:20px;">r</tspan><tspan x="32.2" y="0" style="font-family:'MyriadPro-Regular'; font-size:20px;">ch 28</tspan></text>
		<text transform="matrix(1 0 0 1 2937.1245 2101.9773)"><tspan x="0" y="0" style="font-family:'MyriadPro-Regular'; font-size:20px;">M</tspan><tspan x="16.2" y="0" style="font-family:'MyriadPro-Regular'; font-size:20px;">a</tspan><tspan x="25.8" y="0" style="font-family:'MyriadPro-Regular'; font-size:20px;">r</tspan><tspan x="32.2" y="0" style="font-family:'MyriadPro-Regular'; font-size:20px;">ch 27</tspan></text>
		<text transform="matrix(1 0 0 1 2851.9292 2101.9773)"><tspan x="0" y="0" style="font-family:'MyriadPro-Regular'; font-size:20px;">M</tspan><tspan x="16.2" y="0" style="font-family:'MyriadPro-Regular'; font-size:20px;">a</tspan><tspan x="25.8" y="0" style="font-family:'MyriadPro-Regular'; font-size:20px;">r</tspan><tspan x="32.2" y="0" style="font-family:'MyriadPro-Regular'; font-size:20px;">ch 26</tspan></text>
		<text transform="matrix(1 0 0 1 2766.7339 2101.9773)"><tspan x="0" y="0" style="font-family:'MyriadPro-Regular'; font-size:20px;">M</tspan><tspan x="16.2" y="0" style="font-family:'MyriadPro-Regular'; font-size:20px;">a</tspan><tspan x="25.8" y="0" style="font-family:'MyriadPro-Regular'; font-size:20px;">r</tspan><tspan x="32.2" y="0" style="font-family:'MyriadPro-Regular'; font-size:20px;">ch 25</tspan></text>
		<text transform="matrix(1 0 0 1 2681.5371 2101.9773)"><tspan x="0" y="0" style="font-family:'MyriadPro-Regular'; font-size:20px;">M</tspan><tspan x="16.2" y="0" style="font-family:'MyriadPro-Regular'; font-size:20px;">a</tspan><tspan x="25.8" y="0" style="font-family:'MyriadPro-Regular'; font-size:20px;">r</tspan><tspan x="32.2" y="0" style="font-family:'MyriadPro-Regular'; font-size:20px;">ch 24</tspan></text>
		<text transform="matrix(1 0 0 1 2596.3418 2101.9773)"><tspan x="0" y="0" style="font-family:'MyriadPro-Regular'; font-size:20px;">M</tspan><tspan x="16.2" y="0" style="font-family:'MyriadPro-Regular'; font-size:20px;">a</tspan><tspan x="25.8" y="0" style="font-family:'MyriadPro-Regular'; font-size:20px;">r</tspan><tspan x="32.2" y="0" style="font-family:'MyriadPro-Regular'; font-size:20px;">ch 23</tspan></text>
		<text transform="matrix(1 0 0 1 2511.1465 2101.9773)"><tspan x="0" y="0" style="font-family:'MyriadPro-Regular'; font-size:20px;">M</tspan><tspan x="16.2" y="0" style="font-family:'MyriadPro-Regular'; font-size:20px;">a</tspan><tspan x="25.8" y="0" style="font-family:'MyriadPro-Regular'; font-size:20px;">r</tspan><tspan x="32.2" y="0" style="font-family:'MyriadPro-Regular'; font-size:20px;">ch 22</tspan></text>
		<text transform="matrix(1 0 0 1 2425.9507 2101.9773)"><tspan x="0" y="0" style="font-family:'MyriadPro-Regular'; font-size:20px;">M</tspan><tspan x="16.2" y="0" style="font-family:'MyriadPro-Regular'; font-size:20px;">a</tspan><tspan x="25.8" y="0" style="font-family:'MyriadPro-Regular'; font-size:20px;">r</tspan><tspan x="32.2" y="0" style="font-family:'MyriadPro-Regular'; font-size:20px;">ch 21</tspan></text>
	</g>
</g>
<text transform="matrix(0 -1 1 0 89.3311 1347.2053)" class="st10 st11">Number of Tweets</text>
<text transform="matrix(1 0 0 1 809.9261 2178.0376)" class="st10 st11">Date</text>
<text transform="matrix(1 0 0 1 406.4988 187.0165)" class="st12 st13">Number of Tweets per Continent</text>
</svg>
