<svg id="Layer_1" data-name="Layer 1" xmlns="http://www.w3.org/2000/svg" viewBox="0 0 3315.81 2048.98"><defs><style>.cls-1,.cls-2{fill:none;}.cls-1,.cls-2,.cls-4,.cls-5,.cls-6,.cls-7,.cls-8,.cls-9{stroke:#000;stroke-miterlimit:10;}.cls-1,.cls-4,.cls-5,.cls-6,.cls-7,.cls-8,.cls-9{stroke-width:2px;}.cls-11,.cls-12,.cls-13,.cls-14,.cls-16,.cls-3,.cls-4,.cls-5,.cls-6,.cls-7,.cls-8,.cls-9{isolation:isolate;}.cls-3{font-size:25px;}.cls-11,.cls-13,.cls-3{font-family:ArialMT, Arial;}.cls-4{fill:#d7d8cd;}.cls-4,.cls-5,.cls-6,.cls-7,.cls-8,.cls-9{opacity:0.9;}.cls-5{fill:#f5c870;}.cls-6{fill:#9ab576;}.cls-7{fill:#5a8494;}.cls-8{fill:#8e4b8f;}.cls-9{fill:#ad3d2f;}.cls-10,.cls-13{letter-spacing:-0.06em;}.cls-11,.cls-13{font-size:20px;}.cls-14{font-size:40px;font-family:Arial-BoldMT, Arial;font-weight:700;}.cls-15{letter-spacing:-0.07em;}.cls-16{font-size:50px;font-family:Arial-Black, Arial Black;font-weight:800;}.cls-17{letter-spacing:0.06em;}.cls-18{letter-spacing:-0.01em;}.cls-19{letter-spacing:-0.01em;}</style></defs><line class="cls-1" x1="141.49" y1="1929.08" x2="1458.99" y2="1929.08"/><line class="cls-2" x1="141.49" y1="1929.08" x2="141.49" y2="1914.88"/><line class="cls-1" x1="306.19" y1="1929.08" x2="306.19" y2="1914.88"/><line class="cls-1" x1="470.89" y1="1929.08" x2="470.89" y2="1914.88"/><line class="cls-1" x1="635.59" y1="1929.08" x2="635.59" y2="1914.88"/><line class="cls-1" x1="800.19" y1="1929.08" x2="800.19" y2="1914.88"/><line class="cls-1" x1="964.89" y1="1929.08" x2="964.89" y2="1914.88"/><line class="cls-1" x1="1129.59" y1="1929.08" x2="1129.59" y2="1914.88"/><line class="cls-1" x1="1294.29" y1="1929.08" x2="1294.29" y2="1914.88"/><line class="cls-1" x1="1458.99" y1="1929.08" x2="1458.99" y2="1914.88"/><text class="cls-3" transform="translate(116.92 1935.22)">0</text><text class="cls-3" transform="translate(103.01 1581.45)">50</text><text class="cls-3" transform="translate(89.11 1225.3)">100</text><text class="cls-3" transform="translate(89.11 868.42)">150</text><text class="cls-3" transform="translate(89.11 514.65)">200</text><text class="cls-3" transform="translate(89.11 159.7)">250</text><line class="cls-1" x1="141.49" y1="1929.08" x2="141.49" y2="151.68"/><line class="cls-2" x1="141.49" y1="1929.08" x2="174.39" y2="1929.08"/><line class="cls-1" x1="141.49" y1="1573.68" x2="174.39" y2="1573.68"/><line class="cls-1" x1="141.49" y1="1218.18" x2="174.39" y2="1218.18"/><line class="cls-1" x1="141.49" y1="862.68" x2="174.39" y2="862.68"/><line class="cls-1" x1="141.49" y1="507.18" x2="174.39" y2="507.18"/><line class="cls-1" x1="141.49" y1="151.68" x2="174.39" y2="151.68"/><rect class="cls-4" x="1591.39" y="374.78" width="80" height="80"/><rect class="cls-4" x="322.59" y="1857.98" width="131.8" height="21.3"/><rect class="cls-4" x="981.39" y="1232.38" width="131.8" height="21.3"/><rect class="cls-4" x="1146.09" y="194.38" width="131.8" height="85.3"/><rect class="cls-4" x="1310.79" y="684.88" width="131.8" height="42.7"/><rect class="cls-5" x="1591.39" y="467.18" width="80" height="80"/><rect class="cls-5" x="322.59" y="1879.38" width="131.8" height="14.2"/><rect class="cls-5" x="816.69" y="1843.78" width="131.8" height="14.2"/><rect class="cls-5" x="981.39" y="1253.68" width="131.8" height="56.9"/><rect class="cls-5" x="1146.09" y="279.68" width="131.8" height="277.3"/><rect class="cls-5" x="1310.79" y="727.58" width="131.8" height="156.4"/><rect class="cls-6" x="1591.39" y="558.98" width="80" height="80"/><rect class="cls-6" x="1146.09" y="556.98" width="131.8" height="28.4"/><rect class="cls-6" x="1310.79" y="883.98" width="131.8" height="35.5"/><rect class="cls-7" x="1591.39" y="650.88" width="80" height="80"/><rect class="cls-7" x="322.59" y="1893.58" width="131.8" height="14.2"/><rect class="cls-7" x="487.29" y="1907.78" width="131.8" height="7.1"/><rect class="cls-7" x="651.99" y="1900.68" width="131.8" height="7.1"/><rect class="cls-7" x="816.69" y="1857.98" width="131.8" height="28.4"/><rect class="cls-7" x="981.39" y="1310.58" width="131.8" height="348.4"/><rect class="cls-7" x="1146.09" y="585.38" width="131.8" height="597.2"/><rect class="cls-7" x="1310.79" y="919.58" width="131.8" height="504.8"/><rect class="cls-8" x="1591.39" y="742.88" width="80" height="80"/><rect class="cls-8" x="157.99" y="1914.88" width="131.8" height="7.1"/><rect class="cls-8" x="322.59" y="1907.78" width="131.8" height="7.1"/><rect class="cls-8" x="651.99" y="1907.78" width="131.8" height="7.1"/><rect class="cls-8" x="816.69" y="1886.48" width="131.8" height="14.2"/><rect class="cls-8" x="981.39" y="1658.98" width="131.8" height="234.6"/><rect class="cls-8" x="1146.09" y="1182.58" width="131.8" height="711"/><rect class="cls-8" x="1310.79" y="1424.38" width="131.8" height="483.5"/><rect class="cls-9" x="1591.39" y="834.68" width="80" height="80"/><rect class="cls-9" x="157.99" y="1921.98" width="131.8" height="7.1"/><rect class="cls-9" x="322.59" y="1914.88" width="131.8" height="14.2"/><rect class="cls-9" x="487.29" y="1914.88" width="131.8" height="14.2"/><rect class="cls-9" x="651.99" y="1914.88" width="131.8" height="14.2"/><rect class="cls-9" x="816.69" y="1900.68" width="131.8" height="28.4"/><rect class="cls-9" x="981.39" y="1893.58" width="131.8" height="35.5"/><rect class="cls-9" x="1146.09" y="1893.58" width="131.8" height="35.5"/><rect class="cls-9" x="1310.79" y="1907.78" width="131.8" height="21.3"/><text class="cls-3" transform="translate(1690.47 423.99)">Africa</text><text class="cls-3" transform="translate(1690.47 516.24)">Asia</text><text class="cls-3" transform="translate(1690.47 608.88)">Australia</text><text class="cls-3" transform="translate(1690.47 701.52)">Europe</text><text class="cls-3" transform="translate(1690.47 793.15)">North<tspan class="cls-10" x="61.13" y="0"> </tspan><tspan x="66.7" y="0">America</tspan></text><text class="cls-3" transform="translate(1690.47 883.79)">South<tspan class="cls-10" x="65.33" y="0"> </tspan><tspan x="70.9" y="0">America</tspan></text><text class="cls-3" transform="translate(1324.55 1957.86)">March 28</text><text class="cls-3" transform="translate(1159.85 1957.86)">March 27</text><text class="cls-3" transform="translate(995.16 1957.86)">March 26</text><text class="cls-3" transform="translate(830.47 1957.86)">March 25</text><text class="cls-3" transform="translate(665.78 1957.86)">March 24</text><text class="cls-3" transform="translate(501.09 1957.86)">March 23</text><text class="cls-3" transform="translate(336.4 1957.86)">March 22</text><text class="cls-3" transform="translate(171.71 1957.86)">March 21</text><line class="cls-1" x1="2366.89" y1="1926.08" x2="3048.39" y2="1926.08"/><line class="cls-2" x1="2366.89" y1="1926.08" x2="2366.89" y2="1913.68"/><line class="cls-1" x1="2451.99" y1="1926.08" x2="2451.99" y2="1913.68"/><line class="cls-1" x1="2537.19" y1="1926.08" x2="2537.19" y2="1913.68"/><line class="cls-1" x1="2622.39" y1="1926.08" x2="2622.39" y2="1913.68"/><line class="cls-1" x1="2707.59" y1="1926.08" x2="2707.59" y2="1913.68"/><line class="cls-1" x1="2792.79" y1="1926.08" x2="2792.79" y2="1913.68"/><line class="cls-1" x1="2877.99" y1="1926.08" x2="2877.99" y2="1913.68"/><line class="cls-1" x1="2963.19" y1="1926.08" x2="2963.19" y2="1913.68"/><line class="cls-1" x1="3048.39" y1="1926.08" x2="3048.39" y2="1913.68"/><text class="cls-11" transform="translate(2345.93 1938.1)">0</text><text class="cls-11" transform="translate(2335.67 1838.59)">50</text><text class="cls-11" transform="translate(2325.41 1739.07)">100</text><text class="cls-11" transform="translate(2325.41 1639.56)">150</text><text class="cls-11" transform="translate(2325.41 1540.04)">200</text><text class="cls-11" transform="translate(2325.41 1440.53)">250</text><line class="cls-1" x1="2366.89" y1="1926.08" x2="2366.89" y2="1428.58"/><line class="cls-2" x1="2366.89" y1="1926.08" x2="2383.89" y2="1926.08"/><line class="cls-1" x1="2366.89" y1="1826.58" x2="2383.89" y2="1826.58"/><line class="cls-1" x1="2366.89" y1="1727.08" x2="2383.89" y2="1727.08"/><line class="cls-1" x1="2366.89" y1="1627.58" x2="2383.89" y2="1627.58"/><line class="cls-1" x1="2366.89" y1="1528.08" x2="2383.89" y2="1528.08"/><line class="cls-1" x1="2366.89" y1="1428.58" x2="2383.89" y2="1428.58"/><rect class="cls-4" x="3094.99" y="1428.58" width="85.2" height="49.8"/><rect class="cls-4" x="2460.59" y="1906.18" width="68.2" height="6"/><rect class="cls-4" x="2801.29" y="1731.08" width="68.2" height="6"/><rect class="cls-4" x="2886.49" y="1440.48" width="68.2" height="23.9"/><rect class="cls-4" x="2971.69" y="1577.78" width="68.2" height="11.9"/><rect class="cls-5" x="3094.99" y="1503.18" width="85.2" height="49.8"/><rect class="cls-5" x="2460.59" y="1912.18" width="68.2" height="4"/><rect class="cls-5" x="2716.19" y="1902.28" width="68.2" height="4"/><rect class="cls-5" x="2801.29" y="1737.08" width="68.2" height="15.9"/><rect class="cls-5" x="2886.49" y="1464.38" width="68.2" height="77.6"/><rect class="cls-5" x="2971.69" y="1589.78" width="68.2" height="43.8"/><rect class="cls-6" x="3094.99" y="1577.78" width="85.2" height="49.8"/><rect class="cls-6" x="2886.49" y="1541.98" width="68.2" height="8"/><rect class="cls-6" x="2971.69" y="1633.58" width="68.2" height="10"/><rect class="cls-7" x="3094.99" y="1652.48" width="85.2" height="49.8"/><rect class="cls-7" x="2460.59" y="1916.18" width="68.2" height="4"/><rect class="cls-7" x="2545.79" y="1920.18" width="68.2" height="2"/><rect class="cls-7" x="2630.99" y="1918.18" width="68.2" height="2"/><rect class="cls-7" x="2716.19" y="1906.18" width="68.2" height="8"/><rect class="cls-7" x="2801.29" y="1752.98" width="68.2" height="97.5"/><rect class="cls-7" x="2886.49" y="1549.98" width="68.2" height="167.2"/><rect class="cls-7" x="2971.69" y="1643.48" width="68.2" height="141.3"/><rect class="cls-8" x="3094.99" y="1727.08" width="85.2" height="49.8"/><rect class="cls-8" x="2375.39" y="1922.18" width="68.2" height="2"/><rect class="cls-8" x="2460.59" y="1920.18" width="68.2" height="2"/><rect class="cls-8" x="2630.99" y="1920.18" width="68.2" height="2"/><rect class="cls-8" x="2716.19" y="1914.18" width="68.2" height="4"/><rect class="cls-8" x="2801.29" y="1850.48" width="68.2" height="65.7"/><rect class="cls-8" x="2886.49" y="1717.18" width="68.2" height="199"/><rect class="cls-8" x="2971.69" y="1784.78" width="68.2" height="135.3"/><rect class="cls-9" x="3094.99" y="1801.68" width="85.2" height="49.8"/><rect class="cls-9" x="2375.39" y="1924.18" width="68.2" height="2"/><rect class="cls-9" x="2460.59" y="1922.18" width="68.2" height="4"/><rect class="cls-9" x="2545.79" y="1922.18" width="68.2" height="4"/><rect class="cls-9" x="2630.99" y="1922.18" width="68.2" height="4"/><rect class="cls-9" x="2716.19" y="1918.18" width="68.2" height="8"/><rect class="cls-9" x="2801.29" y="1916.18" width="68.2" height="10"/><rect class="cls-9" x="2886.49" y="1916.18" width="68.2" height="10"/><rect class="cls-9" x="2971.69" y="1920.18" width="68.2" height="6"/><g class="cls-12"><text class="cls-13" transform="translate(3190.85 1465.41)">A</text><text class="cls-11" transform="translate(3202.95 1465.41)">f</text><text class="cls-11" transform="translate(3208.75 1465.41)">r</text><text class="cls-11" transform="translate(3215.45 1465.41)">ica</text></g><g class="cls-12"><text class="cls-13" transform="translate(3190.85 1540.04)">A</text><text class="cls-11" transform="translate(3202.95 1540.04)">sia</text></g><g class="cls-12"><text class="cls-13" transform="translate(3190.85 1614.68)">A</text><text class="cls-11" transform="translate(3202.85 1614.68)">ust</text><text class="cls-11" transform="translate(3228.45 1614.68)">r</text><text class="cls-11" transform="translate(3234.85 1614.68)">alia</text></g><g class="cls-12"><text class="cls-11" transform="translate(3190.85 1689.32)">E</text><text class="cls-11" transform="translate(3200.55 1689.32)">u</text><text class="cls-11" transform="translate(3211.55 1689.32)">r</text><text class="cls-11" transform="translate(3217.95 1689.32)">ope</text></g><g class="cls-12"><text class="cls-11" transform="translate(3190.85 1763.95)">No</text><text class="cls-11" transform="translate(3214.95 1763.95)">r</text><text class="cls-11" transform="translate(3222.05 1763.95)">th </text><text class="cls-13" transform="translate(3243.95 1763.95)">A</text><text class="cls-11" transform="translate(3256.15 1763.95)">me</text><text class="cls-11" transform="translate(3282.85 1763.95)">r</text><text class="cls-11" transform="translate(3289.45 1763.95)">ica</text></g><g class="cls-12"><text class="cls-11" transform="translate(3190.85 1838.59)">S</text><text class="cls-11" transform="translate(3200.85 1838.59)">outh </text><text class="cls-13" transform="translate(3244.75 1838.59)">A</text><text class="cls-11" transform="translate(3256.95 1838.59)">me</text><text class="cls-11" transform="translate(3283.65 1838.59)">r</text><text class="cls-11" transform="translate(3290.25 1838.59)">ica</text></g><g class="cls-12"><text class="cls-11" transform="translate(2967.31 1957.86)">M</text><text class="cls-11" transform="translate(2983.51 1957.86)">a</text><text class="cls-11" transform="translate(2993.11 1957.86)">r</text><text class="cls-11" transform="translate(2999.51 1957.86)">ch 28</text></g><g class="cls-12"><text class="cls-11" transform="translate(2882.11 1957.86)">M</text><text class="cls-11" transform="translate(2898.31 1957.86)">a</text><text class="cls-11" transform="translate(2907.91 1957.86)">r</text><text class="cls-11" transform="translate(2914.31 1957.86)">ch 27</text></g><g class="cls-12"><text class="cls-11" transform="translate(2796.91 1957.86)">M</text><text class="cls-11" transform="translate(2813.11 1957.86)">a</text><text class="cls-11" transform="translate(2822.71 1957.86)">r</text><text class="cls-11" transform="translate(2829.11 1957.86)">ch 26</text></g><g class="cls-12"><text class="cls-11" transform="translate(2711.72 1957.86)">M</text><text class="cls-11" transform="translate(2727.92 1957.86)">a</text><text class="cls-11" transform="translate(2737.52 1957.86)">r</text><text class="cls-11" transform="translate(2743.92 1957.86)">ch 25</text></g><g class="cls-12"><text class="cls-11" transform="translate(2626.52 1957.86)">M</text><text class="cls-11" transform="translate(2642.72 1957.86)">a</text><text class="cls-11" transform="translate(2652.32 1957.86)">r</text><text class="cls-11" transform="translate(2658.72 1957.86)">ch 24</text></g><g class="cls-12"><text class="cls-11" transform="translate(2541.33 1957.86)">M</text><text class="cls-11" transform="translate(2557.53 1957.86)">a</text><text class="cls-11" transform="translate(2567.13 1957.86)">r</text><text class="cls-11" transform="translate(2573.53 1957.86)">ch 23</text></g><g class="cls-12"><text class="cls-11" transform="translate(2456.13 1957.86)">M</text><text class="cls-11" transform="translate(2472.33 1957.86)">a</text><text class="cls-11" transform="translate(2481.93 1957.86)">r</text><text class="cls-11" transform="translate(2488.33 1957.86)">ch 22</text></g><g class="cls-12"><text class="cls-11" transform="translate(2370.94 1957.86)">M</text><text class="cls-11" transform="translate(2387.14 1957.86)">a</text><text class="cls-11" transform="translate(2396.74 1957.86)">r</text><text class="cls-11" transform="translate(2403.14 1957.86)">ch 21</text></g><text class="cls-14" transform="translate(34.32 1203.09) rotate(-90)">Number of <tspan class="cls-15" x="211.11" y="0">T</tspan><tspan x="232.58" y="0">weets</tspan></text><text class="cls-14" transform="translate(754.91 2033.92)">Date</text><text class="cls-16" transform="translate(351.48 42.9)">Number o<tspan class="cls-17" x="263.92" y="0">f</tspan><tspan x="286.28" y="0"> </tspan><tspan class="cls-18" x="302.95" y="0">T</tspan><tspan class="cls-19" x="338.57" y="0">w</tspan><tspan x="385.21" y="0">eets per Continent</tspan></text></svg>