<svg id="Layer_1" data-name="Layer 1" xmlns="http://www.w3.org/2000/svg" viewBox="0 0 1853.06 2048.98"><defs><style>.cls-1,.cls-2{fill:none;}.cls-1,.cls-2,.cls-4,.cls-5,.cls-6,.cls-7,.cls-8,.cls-9{stroke:#000;stroke-miterlimit:10;}.cls-1,.cls-4,.cls-5,.cls-6,.cls-7,.cls-8,.cls-9{stroke-width:2px;}.cls-11,.cls-13,.cls-3,.cls-4,.cls-5,.cls-6,.cls-7,.cls-8,.cls-9{isolation:isolate;}.cls-3{font-size:25px;font-family:ArialMT, Arial;}.cls-4{fill:#d7d8cd;}.cls-4,.cls-5,.cls-6,.cls-7,.cls-8,.cls-9{opacity:0.9;}.cls-5{fill:#f5c870;}.cls-6{fill:#9ab576;}.cls-7{fill:#5a8494;}.cls-8{fill:#8e4b8f;}.cls-9{fill:#ad3d2f;}.cls-10{letter-spacing:-0.06em;}.cls-11{font-size:40px;font-family:Arial-BoldMT, Arial;font-weight:700;}.cls-12{letter-spacing:-0.07em;}.cls-13{font-size:50px;font-family:Arial-Black, Arial Black;font-weight:800;}.cls-14{letter-spacing:0.06em;}.cls-15{letter-spacing:-0.01em;}.cls-16{letter-spacing:-0.01em;}</style></defs><line class="cls-1" x1="141.49" y1="1929.08" x2="1458.99" y2="1929.08"/><line class="cls-2" x1="141.49" y1="1929.08" x2="141.49" y2="1914.88"/><line class="cls-1" x1="306.19" y1="1929.08" x2="306.19" y2="1914.88"/><line class="cls-1" x1="470.89" y1="1929.08" x2="470.89" y2="1914.88"/><line class="cls-1" x1="635.59" y1="1929.08" x2="635.59" y2="1914.88"/><line class="cls-1" x1="800.19" y1="1929.08" x2="800.19" y2="1914.88"/><line class="cls-1" x1="964.89" y1="1929.08" x2="964.89" y2="1914.88"/><line class="cls-1" x1="1129.59" y1="1929.08" x2="1129.59" y2="1914.88"/><line class="cls-1" x1="1294.29" y1="1929.08" x2="1294.29" y2="1914.88"/><line class="cls-1" x1="1458.99" y1="1929.08" x2="1458.99" y2="1914.88"/><text class="cls-3" transform="translate(116.92 1935.22)">0</text><text class="cls-3" transform="translate(103.01 1581.45)">50</text><text class="cls-3" transform="translate(89.11 1225.3)">100</text><text class="cls-3" transform="translate(89.11 868.42)">150</text><text class="cls-3" transform="translate(89.11 514.65)">200</text><text class="cls-3" transform="translate(89.11 159.7)">250</text><line class="cls-1" x1="141.49" y1="1929.08" x2="141.49" y2="151.68"/><line class="cls-2" x1="141.49" y1="1929.08" x2="174.39" y2="1929.08"/><line class="cls-1" x1="141.49" y1="1573.68" x2="174.39" y2="1573.68"/><line class="cls-1" x1="141.49" y1="1218.18" x2="174.39" y2="1218.18"/><line class="cls-1" x1="141.49" y1="862.68" x2="174.39" y2="862.68"/><line class="cls-1" x1="141.49" y1="507.18" x2="174.39" y2="507.18"/><line class="cls-1" x1="141.49" y1="151.68" x2="174.39" y2="151.68"/><rect class="cls-4" x="1591.39" y="374.78" width="80" height="80"/><rect class="cls-4" x="322.59" y="1857.98" width="131.8" height="21.3"/><rect class="cls-4" x="981.39" y="1232.38" width="131.8" height="21.3"/><rect class="cls-4" x="1146.09" y="194.38" width="131.8" height="85.3"/><rect class="cls-4" x="1310.79" y="684.88" width="131.8" height="42.7"/><rect class="cls-5" x="1591.39" y="467.18" width="80" height="80"/><rect class="cls-5" x="322.59" y="1879.38" width="131.8" height="14.2"/><rect class="cls-5" x="816.69" y="1843.78" width="131.8" height="14.2"/><rect class="cls-5" x="981.39" y="1253.68" width="131.8" height="56.9"/><rect class="cls-5" x="1146.09" y="279.68" width="131.8" height="277.3"/><rect class="cls-5" x="1310.79" y="727.58" width="131.8" height="156.4"/><rect class="cls-6" x="1591.39" y="558.98" width="80" height="80"/><rect class="cls-6" x="1146.09" y="556.98" width="131.8" height="28.4"/><rect class="cls-6" x="1310.79" y="883.98" width="131.8" height="35.5"/><rect class="cls-7" x="1591.39" y="650.88" width="80" height="80"/><rect class="cls-7" x="322.59" y="1893.58" width="131.8" height="14.2"/><rect class="cls-7" x="487.29" y="1907.78" width="131.8" height="7.1"/><rect class="cls-7" x="651.99" y="1900.68" width="131.8" height="7.1"/><rect class="cls-7" x="816.69" y="1857.98" width="131.8" height="28.4"/><rect class="cls-7" x="981.39" y="1310.58" width="131.8" height="348.4"/><rect class="cls-7" x="1146.09" y="585.38" width="131.8" height="597.2"/><rect class="cls-7" x="1310.79" y="919.58" width="131.8" height="504.8"/><rect class="cls-8" x="1591.39" y="742.88" width="80" height="80"/><rect class="cls-8" x="157.99" y="1914.88" width="131.8" height="7.1"/><rect class="cls-8" x="322.59" y="1907.78" width="131.8" height="7.1"/><rect class="cls-8" x="651.99" y="1907.78" width="131.8" height="7.1"/><rect class="cls-8" x="816.69" y="1886.48" width="131.8" height="14.2"/><rect class="cls-8" x="981.39" y="1658.98" width="131.8" height="234.6"/><rect class="cls-8" x="1146.09" y="1182.58" width="131.8" height="711"/><rect class="cls-8" x="1310.79" y="1424.38" width="131.8" height="483.5"/><rect class="cls-9" x="1591.39" y="834.68" width="80" height="80"/><rect class="cls-9" x="157.99" y="1921.98" width="131.8" height="7.1"/><rect class="cls-9" x="322.59" y="1914.88" width="131.8" height="14.2"/><rect class="cls-9" x="487.29" y="1914.88" width="131.8" height="14.2"/><rect class="cls-9" x="651.99" y="1914.88" width="131.8" height="14.2"/><rect class="cls-9" x="816.69" y="1900.68" width="131.8" height="28.4"/><rect class="cls-9" x="981.39" y="1893.58" width="131.8" height="35.5"/><rect class="cls-9" x="1146.09" y="1893.58" width="131.8" height="35.5"/><rect class="cls-9" x="1310.79" y="1907.78" width="131.8" height="21.3"/><text class="cls-3" transform="translate(1690.47 423.99)">Africa</text><text class="cls-3" transform="translate(1690.47 516.24)">Asia</text><text class="cls-3" transform="translate(1690.47 608.88)">Australia</text><text class="cls-3" transform="translate(1690.47 701.52)">Europe</text><text class="cls-3" transform="translate(1690.47 793.15)">North<tspan class="cls-10" x="61.13" y="0"> </tspan><tspan x="66.7" y="0">America</tspan></text><text class="cls-3" transform="translate(1690.47 883.79)">South<tspan class="cls-10" x="65.33" y="0"> </tspan><tspan x="70.9" y="0">America</tspan></text><text class="cls-3" transform="translate(1324.55 1957.86)">March 28</text><text class="cls-3" transform="translate(1159.85 1957.86)">March 27</text><text class="cls-3" transform="translate(995.16 1957.86)">March 26</text><text class="cls-3" transform="translate(830.47 1957.86)">March 25</text><text class="cls-3" transform="translate(665.78 1957.86)">March 24</text><text class="cls-3" transform="translate(501.09 1957.86)">March 23</text><text class="cls-3" transform="translate(336.4 1957.86)">March 22</text><text class="cls-3" transform="translate(171.71 1957.86)">March 21</text><text class="cls-11" transform="translate(34.32 1203.09) rotate(-90)">Number of <tspan class="cls-12" x="211.11" y="0">T</tspan><tspan x="232.58" y="0">weets</tspan></text><text class="cls-11" transform="translate(754.91 2033.92)">Date</text><text class="cls-13" transform="translate(351.48 42.9)">Number o<tspan class="cls-14" x="263.92" y="0">f</tspan><tspan x="286.28" y="0"> </tspan><tspan class="cls-15" x="302.95" y="0">T</tspan><tspan class="cls-16" x="338.57" y="0">w</tspan><tspan x="385.21" y="0">eets per Continent</tspan></text></svg>