<svg xmlns="http://www.w3.org/2000/svg" viewBox="0 0 5645.24 2485.79"><defs><style>.cls-1{fill:none;}.cls-1,.cls-4,.cls-5,.cls-6,.cls-7,.cls-8,.cls-9{stroke:#000;stroke-miterlimit:10;}.cls-11,.cls-2,.cls-23{font-size:75px;fill:#231f20;}.cls-11,.cls-2{font-family:PlayfairDisplay-Regular, Playfair Display;}.cls-3{letter-spacing:-0.01em;}.cls-4{fill:#d8d8d8;}.cls-4,.cls-5,.cls-6,.cls-7,.cls-8,.cls-9{stroke-width:2px;}.cls-5{fill:#e0e8d3;}.cls-6{fill:#a1bec9;}.cls-7{fill:#558382;}.cls-8{fill:#2d505c;}.cls-9{fill:#b7c5a7;}.cls-10{letter-spacing:-0.01em;}.cls-11{letter-spacing:-0.03em;}.cls-12{letter-spacing:0em;}.cls-13{letter-spacing:-0.02em;}.cls-14{letter-spacing:0em;}.cls-15{letter-spacing:-0.02em;}.cls-16{letter-spacing:-0.03em;}.cls-17{letter-spacing:-0.03em;}.cls-18{letter-spacing:0em;}.cls-19{letter-spacing:-0.02em;}.cls-20{letter-spacing:-0.01em;}.cls-21{letter-spacing:0em;}.cls-22{letter-spacing:-0.01em;}.cls-23{font-family:PlayfairDisplay-SemiBold, Playfair Display;font-weight:600;}.cls-24{letter-spacing:-0.01em;}.cls-25{letter-spacing:0em;}.cls-26{letter-spacing:-0.02em;}.cls-27{letter-spacing:-0.02em;}.cls-28{letter-spacing:-0.01em;}.cls-29{letter-spacing:-0.01em;}.cls-30{letter-spacing:0em;}</style></defs><g id="Layer_2" data-name="Layer 2"><g id="Layer_1-2" data-name="Layer 1"><line class="cls-1" x1="3131.26" y1="2140.01" x2="4372.21" y2="2140.01"/><line class="cls-1" x1="3131.26" y1="2140.01" x2="3131.26" y2="2087.2"/><line class="cls-1" x1="3542.77" y1="2140.01" x2="3542.77" y2="2087.2"/><line class="cls-1" x1="3957.49" y1="2140.01" x2="3957.49" y2="2087.2"/><line class="cls-1" x1="4372.21" y1="2140.01" x2="4372.21" y2="2087.2"/><text class="cls-2" transform="translate(3053.96 2176.34)">0</text><text class="cls-2" transform="translate(3022.83 1753.88)">50</text><text class="cls-2" transform="translate(2981.21 1331.42)">100</text><text class="cls-2" transform="translate(2995.98 908.97)"><tspan class="cls-3">1</tspan><tspan x="26.85" y="0">50</tspan></text><text class="cls-2" transform="translate(2973.03 486.51)">200</text><text class="cls-2" transform="translate(2986.91 64.05)">250</text><line class="cls-1" x1="3131.26" y1="2140.01" x2="3131.26" y2="27.71"/><line class="cls-1" x1="3131.26" y1="2140.01" x2="3182.94" y2="2140.01"/><line class="cls-1" x1="3131.26" y1="1717.55" x2="3182.94" y2="1717.55"/><line class="cls-1" x1="3131.26" y1="1295.09" x2="3182.94" y2="1295.09"/><line class="cls-1" x1="3131.26" y1="872.63" x2="3182.94" y2="872.63"/><line class="cls-1" x1="3131.26" y1="450.17" x2="3182.94" y2="450.17"/><line class="cls-1" x1="3131.26" y1="27.71" x2="3182.94" y2="27.71"/><rect class="cls-4" x="3186.11" y="1311.99" width="298.6" height="25.35"/><rect class="cls-5" x="3186.11" y="1337.33" width="298.6" height="67.59"/><rect class="cls-6" x="3186.11" y="1404.93" width="298.6" height="414.01"/><rect class="cls-7" x="3186.11" y="1818.94" width="298.6" height="278.82"/><rect class="cls-8" x="3186.11" y="2097.76" width="298.6" height="42.25"/><rect class="cls-4" x="3600.83" y="78.41" width="298.6" height="101.39"/><rect class="cls-5" x="3600.83" y="179.8" width="298.6" height="329.52"/><rect class="cls-9" x="3600.83" y="509.31" width="298.6" height="33.8"/><rect class="cls-6" x="3600.83" y="543.11" width="298.6" height="709.73"/><rect class="cls-7" x="3600.83" y="1252.84" width="298.6" height="844.92"/><rect class="cls-8" x="3600.83" y="2097.76" width="298.6" height="42.25"/><rect class="cls-4" x="4015.55" y="661.4" width="298.6" height="50.7"/><rect class="cls-5" x="4015.55" y="712.1" width="298.6" height="185.88"/><rect class="cls-9" x="4015.55" y="897.98" width="298.6" height="42.25"/><rect class="cls-6" x="4015.55" y="940.22" width="298.6" height="599.89"/><rect class="cls-7" x="4015.55" y="1540.11" width="298.6" height="574.54"/><rect class="cls-8" x="4015.55" y="2114.66" width="298.6" height="25.35"/><rect class="cls-4" x="4998.73" y="456.29" width="120" height="120"/><text class="cls-2" transform="translate(5151.52 540.85)">Afric<tspan class="cls-3" x="163.95" y="0">a</tspan></text><rect class="cls-5" x="4998.73" y="656.29" width="120" height="120"/><text class="cls-2" transform="translate(5151.52 740.85)">Asi<tspan class="cls-10" x="102.75" y="0">a</tspan></text><rect class="cls-9" x="4998.73" y="856.29" width="120" height="120"/><text class="cls-11" transform="translate(5151.52 940.85)">A<tspan class="cls-12" x="45" y="0">ustrali</tspan><tspan class="cls-10" x="262.8" y="0">a</tspan></text><rect class="cls-6" x="4998.73" y="1056.29" width="120" height="120"/><text class="cls-2" transform="translate(5151.52 1140.85)">Eu<tspan class="cls-13" x="89.25" y="0">r</tspan><tspan class="cls-14" x="121.12" y="0">ope</tspan></text><rect class="cls-7" x="4998.73" y="1256.29" width="120" height="120"/><text class="cls-2" transform="translate(5151.52 1340.85)"><tspan class="cls-15">N</tspan><tspan x="51.6" y="0">orth</tspan><tspan class="cls-16" x="196.72" y="0"> </tspan><tspan x="212.85" y="0">Americ</tspan><tspan class="cls-10" x="456.44" y="0">a</tspan></text><rect class="cls-8" x="4998.73" y="1456.29" width="120" height="120"/><text class="cls-2" transform="translate(5151.52 1540.85)">South<tspan class="cls-17" x="195.82" y="0"> </tspan><tspan class="cls-14" x="211.95" y="0">Americ</tspan><tspan class="cls-3" x="455.54" y="0">a</tspan></text><text class="cls-2" transform="translate(4010.24 2245.68)"><tspan class="cls-18">M</tspan><tspan x="64.95" y="0">a</tspan><tspan class="cls-19" x="102.3" y="0">r</tspan><tspan x="134.17" y="0">ch 28</tspan></text><text class="cls-2" transform="translate(3600.21 2245.68)"><tspan class="cls-18">M</tspan><tspan x="64.95" y="0">a</tspan><tspan class="cls-19" x="102.3" y="0">r</tspan><tspan x="134.17" y="0">ch 2</tspan><tspan class="cls-20" x="269.32" y="0">7</tspan></text><text class="cls-2" transform="translate(3180.91 2245.68)"><tspan class="cls-18">M</tspan><tspan x="64.95" y="0">a</tspan><tspan class="cls-19" x="102.3" y="0">r</tspan><tspan x="134.17" y="0">ch 26</tspan></text><line class="cls-1" x1="281.07" y1="2159.68" x2="2354.69" y2="2159.68"/><line class="cls-1" x1="281.07" y1="2159.68" x2="281.07" y2="2106.7"/><line class="cls-1" x1="695.8" y1="2159.68" x2="695.8" y2="2106.7"/><line class="cls-1" x1="1110.52" y1="2159.68" x2="1110.52" y2="2106.7"/><line class="cls-1" x1="1525.24" y1="2159.68" x2="1525.24" y2="2106.7"/><line class="cls-1" x1="1939.96" y1="2159.68" x2="1939.96" y2="2106.7"/><line class="cls-1" x1="2354.69" y1="2159.68" x2="2354.69" y2="2106.7"/><text class="cls-2" transform="translate(203.67 2188.12)">0</text><text class="cls-2" transform="translate(212.75 1834.98)">2</text><text class="cls-2" transform="translate(211.62 1481.84)">4</text><text class="cls-2" transform="translate(209.9 1128.7)">6</text><text class="cls-2" transform="translate(209.67 775.56)">8</text><text class="cls-2" transform="translate(175.92 422.41)">10</text><text class="cls-2" transform="translate(185 69.27)">12</text><line class="cls-1" x1="281.07" y1="2157.31" x2="281.07" y2="38.46"/><line class="cls-1" x1="281.07" y1="2159.68" x2="332.91" y2="2159.68"/><line class="cls-1" x1="281.07" y1="1806.53" x2="332.91" y2="1806.53"/><line class="cls-1" x1="281.07" y1="1453.39" x2="332.91" y2="1453.39"/><line class="cls-1" x1="281.07" y1="1100.25" x2="332.91" y2="1100.25"/><line class="cls-1" x1="281.07" y1="747.11" x2="332.91" y2="747.11"/><line class="cls-1" x1="281.07" y1="393.96" x2="332.91" y2="393.96"/><line class="cls-1" x1="281.07" y1="40.82" x2="332.91" y2="40.82"/><rect class="cls-4" x="753.86" y="393.96" width="298.6" height="529.71"/><rect class="cls-5" x="753.86" y="923.68" width="298.6" height="353.14"/><rect class="cls-5" x="1998.02" y="40.82" width="298.6" height="353.14"/><rect class="cls-6" x="753.86" y="1276.82" width="298.6" height="353.14"/><rect class="cls-6" x="1168.58" y="1629.96" width="298.6" height="176.57"/><rect class="cls-6" x="1583.3" y="1453.39" width="298.6" height="176.57"/><rect class="cls-6" x="1998.02" y="393.96" width="298.6" height="706.28"/><rect class="cls-7" x="339.14" y="1806.53" width="298.6" height="176.57"/><rect class="cls-7" x="753.86" y="1629.96" width="298.6" height="176.57"/><rect class="cls-7" x="1583.3" y="1629.96" width="298.6" height="176.57"/><rect class="cls-7" x="1998.02" y="1100.25" width="298.6" height="353.14"/><rect class="cls-8" x="339.14" y="1983.11" width="298.6" height="176.57"/><rect class="cls-8" x="753.86" y="1806.53" width="298.6" height="353.14"/><rect class="cls-8" x="1168.58" y="1806.53" width="298.6" height="353.14"/><rect class="cls-8" x="1583.3" y="1806.53" width="298.6" height="353.14"/><rect class="cls-8" x="1998.02" y="1453.39" width="298.6" height="706.28"/><text class="cls-2" transform="translate(1997.62 2265.68)"><tspan class="cls-21">M</tspan><tspan x="64.95" y="0">a</tspan><tspan class="cls-13" x="102.3" y="0">r</tspan><tspan class="cls-14" x="134.17" y="0">ch 2</tspan><tspan class="cls-22" x="269.32" y="0">5</tspan></text><text class="cls-2" transform="translate(1579.41 2265.68)"><tspan class="cls-21">M</tspan><tspan x="64.95" y="0">a</tspan><tspan class="cls-13" x="102.3" y="0">r</tspan><tspan class="cls-14" x="134.17" y="0">ch 24</tspan></text><text class="cls-2" transform="translate(1166.3 2265.68)"><tspan class="cls-21">M</tspan><tspan x="64.95" y="0">a</tspan><tspan class="cls-13" x="102.3" y="0">r</tspan><tspan class="cls-14" x="134.17" y="0">ch 23</tspan></text><text class="cls-2" transform="translate(750.53 2265.68)"><tspan class="cls-21">M</tspan><tspan x="64.95" y="0">a</tspan><tspan class="cls-13" x="102.3" y="0">r</tspan><tspan class="cls-14" x="134.17" y="0">ch 22</tspan></text><text class="cls-2" transform="translate(339.9 2265.68)"><tspan class="cls-21">M</tspan><tspan x="64.95" y="0">a</tspan><tspan class="cls-13" x="102.3" y="0">r</tspan><tspan class="cls-14" x="134.17" y="0">ch 21</tspan></text><text class="cls-23" transform="translate(64.05 1405.45) rotate(-90)"><tspan class="cls-24">N</tspan><tspan x="52.57" y="0">umb</tspan><tspan class="cls-25" x="208.12" y="0">e</tspan><tspan class="cls-26" x="245.7" y="0">r</tspan><tspan x="278.55" y="0" xml:space="preserve"> of</tspan><tspan class="cls-27" x="364.27" y="0"> </tspan><tspan class="cls-14" x="380.39" y="0">T</tspan><tspan class="cls-28" x="429.29" y="0">w</tspan><tspan x="486.9" y="0">eets</tspan></text><text class="cls-23" transform="translate(1226.25 2467.72)"><tspan class="cls-29">D</tspan><tspan class="cls-14" x="56.4" y="0">a</tspan><tspan class="cls-30" x="94.72" y="0">t</tspan><tspan x="120.97" y="0">e</tspan></text><text class="cls-23" transform="translate(3666.79 2467.72)"><tspan class="cls-29">D</tspan><tspan class="cls-14" x="56.4" y="0">a</tspan><tspan class="cls-30" x="94.72" y="0">t</tspan><tspan x="120.97" y="0">e</tspan></text><text class="cls-23" transform="translate(2852.23 1391.43) rotate(-90)"><tspan class="cls-24">N</tspan><tspan x="52.57" y="0">umb</tspan><tspan class="cls-25" x="208.12" y="0">e</tspan><tspan class="cls-26" x="245.7" y="0">r</tspan><tspan x="278.55" y="0" xml:space="preserve"> of</tspan><tspan class="cls-27" x="364.27" y="0"> </tspan><tspan class="cls-14" x="380.39" y="0">T</tspan><tspan class="cls-28" x="429.29" y="0">w</tspan><tspan x="486.9" y="0">eets</tspan></text></g></g></svg>