<svg xmlns="http://www.w3.org/2000/svg" viewBox="0 0 5658.4 3029.94"><defs><style>.cls-1{fill:none;}.cls-1,.cls-4,.cls-5,.cls-6,.cls-7,.cls-8,.cls-9{stroke:#000;stroke-miterlimit:10;}.cls-2,.cls-35{font-size:75px;}.cls-10,.cls-12,.cls-2,.cls-25,.cls-35{fill:#231f20;}.cls-10,.cls-12,.cls-2{font-family:PlayfairDisplay-Regular, Playfair Display;}.cls-3{letter-spacing:-0.01em;}.cls-4{fill:#d8d8d8;}.cls-4,.cls-5,.cls-6,.cls-7,.cls-8,.cls-9{stroke-width:2px;}.cls-5{fill:#e0e8d3;}.cls-6{fill:#a1bec9;}.cls-7{fill:#558382;}.cls-8{fill:#2d505c;}.cls-9{fill:#b7c5a7;}.cls-10,.cls-12{font-size:77px;}.cls-11{letter-spacing:-0.01em;}.cls-12{letter-spacing:-0.03em;}.cls-13{letter-spacing:0em;}.cls-14{letter-spacing:-0.02em;}.cls-15{letter-spacing:0em;}.cls-16{letter-spacing:-0.02em;}.cls-17{letter-spacing:-0.03em;}.cls-18{letter-spacing:0em;}.cls-19{letter-spacing:-0.02em;}.cls-20{letter-spacing:-0.01em;}.cls-21{letter-spacing:0em;}.cls-22{letter-spacing:-0.02em;}.cls-23{letter-spacing:0em;}.cls-24{letter-spacing:-0.01em;}.cls-25{font-size:150px;font-family:PlayfairDisplay-Bold, Playfair Display;font-weight:700;}.cls-26{letter-spacing:-0.02em;}.cls-27{letter-spacing:-0.01em;}.cls-28{letter-spacing:-0.02em;}.cls-29{letter-spacing:-0.02em;}.cls-30{letter-spacing:0em;}.cls-31{letter-spacing:-0.01em;}.cls-32{letter-spacing:-0.02em;}.cls-33{letter-spacing:-0.01em;}.cls-34{letter-spacing:-0.01em;}.cls-35{font-family:PlayfairDisplay-SemiBold, Playfair Display;font-weight:600;}.cls-36{letter-spacing:-0.01em;}.cls-37{letter-spacing:0em;}.cls-38{letter-spacing:-0.02em;}.cls-39{letter-spacing:-0.01em;}.cls-40{letter-spacing:0em;}</style></defs><g id="Layer_2" data-name="Layer 2"><g id="Layer_1-2" data-name="Layer 1"><line class="cls-1" x1="3131.26" y1="2684.15" x2="4372.21" y2="2684.15"/><line class="cls-1" x1="3131.26" y1="2684.15" x2="3131.26" y2="2631.34"/><line class="cls-1" x1="3542.77" y1="2684.15" x2="3542.77" y2="2631.34"/><line class="cls-1" x1="3957.49" y1="2684.15" x2="3957.49" y2="2631.34"/><line class="cls-1" x1="4372.21" y1="2684.15" x2="4372.21" y2="2631.34"/><text class="cls-2" transform="translate(3053.96 2720.49)">0</text><text class="cls-2" transform="translate(3022.83 2298.03)">50</text><text class="cls-2" transform="translate(2981.21 1875.57)">100</text><text class="cls-2" transform="translate(2995.98 1453.11)"><tspan class="cls-3">1</tspan><tspan x="26.85" y="0">50</tspan></text><text class="cls-2" transform="translate(2973.03 1030.65)">200</text><text class="cls-2" transform="translate(2986.91 608.19)">250</text><line class="cls-1" x1="3131.26" y1="2684.15" x2="3131.26" y2="571.86"/><line class="cls-1" x1="3131.26" y1="2684.15" x2="3182.94" y2="2684.15"/><line class="cls-1" x1="3131.26" y1="2261.69" x2="3182.94" y2="2261.69"/><line class="cls-1" x1="3131.26" y1="1839.23" x2="3182.94" y2="1839.23"/><line class="cls-1" x1="3131.26" y1="1416.77" x2="3182.94" y2="1416.77"/><line class="cls-1" x1="3131.26" y1="994.32" x2="3182.94" y2="994.32"/><line class="cls-1" x1="3131.26" y1="571.86" x2="3182.94" y2="571.86"/><rect class="cls-4" x="3186.11" y="1856.13" width="298.6" height="25.35"/><rect class="cls-5" x="3186.11" y="1881.48" width="298.6" height="67.59"/><rect class="cls-6" x="3186.11" y="1949.07" width="298.6" height="414.01"/><rect class="cls-7" x="3186.11" y="2363.08" width="298.6" height="278.82"/><rect class="cls-8" x="3186.11" y="2641.91" width="298.6" height="42.25"/><rect class="cls-4" x="3600.83" y="622.55" width="298.6" height="101.39"/><rect class="cls-5" x="3600.83" y="723.94" width="298.6" height="329.52"/><rect class="cls-9" x="3600.83" y="1053.46" width="298.6" height="33.8"/><rect class="cls-6" x="3600.83" y="1087.26" width="298.6" height="709.73"/><rect class="cls-7" x="3600.83" y="1796.99" width="298.6" height="844.92"/><rect class="cls-8" x="3600.83" y="2641.91" width="298.6" height="42.25"/><rect class="cls-4" x="4015.55" y="1205.54" width="298.6" height="50.7"/><rect class="cls-5" x="4015.55" y="1256.24" width="298.6" height="185.88"/><rect class="cls-9" x="4015.55" y="1442.12" width="298.6" height="42.25"/><rect class="cls-6" x="4015.55" y="1484.37" width="298.6" height="599.89"/><rect class="cls-7" x="4015.55" y="2084.26" width="298.6" height="574.54"/><rect class="cls-8" x="4015.55" y="2658.8" width="298.6" height="25.35"/><rect class="cls-4" x="4998.73" y="1000.44" width="120" height="120"/><text class="cls-10" transform="translate(5151.52 1084.99)">Afric<tspan class="cls-11" x="168.32" y="0">a</tspan></text><rect class="cls-5" x="4998.73" y="1200.44" width="120" height="120"/><text class="cls-10" transform="translate(5151.52 1284.99)">Asi<tspan class="cls-11" x="105.49" y="0">a</tspan></text><rect class="cls-9" x="4998.73" y="1400.44" width="120" height="120"/><text class="cls-12" transform="translate(5151.52 1484.99)">A<tspan class="cls-13" x="46.2" y="0">ustrali</tspan><tspan class="cls-11" x="269.8" y="0">a</tspan></text><rect class="cls-6" x="4998.73" y="1600.44" width="120" height="120"/><text class="cls-10" transform="translate(5151.52 1684.99)">Eu<tspan class="cls-14" x="91.63" y="0">r</tspan><tspan class="cls-15" x="124.35" y="0">ope</tspan></text><rect class="cls-7" x="4998.73" y="1800.44" width="120" height="120"/><text class="cls-10" transform="translate(5151.52 1884.99)"><tspan class="cls-16">N</tspan><tspan x="52.98" y="0">orth</tspan><tspan class="cls-17" x="201.97" y="0"> </tspan><tspan x="218.52" y="0">Americ</tspan><tspan class="cls-11" x="468.62" y="0">a</tspan></text><rect class="cls-8" x="4998.73" y="2000.44" width="120" height="120"/><text class="cls-10" transform="translate(5151.52 2084.99)">South<tspan class="cls-17" x="201.04" y="0"> </tspan><tspan x="217.6" y="0">Americ</tspan><tspan class="cls-11" x="467.69" y="0">a</tspan></text><text class="cls-2" transform="translate(4010.24 2789.83)"><tspan class="cls-18">M</tspan><tspan x="64.95" y="0">a</tspan><tspan class="cls-19" x="102.3" y="0">r</tspan><tspan x="134.17" y="0">ch 28</tspan></text><text class="cls-2" transform="translate(3600.21 2789.83)"><tspan class="cls-18">M</tspan><tspan x="64.95" y="0">a</tspan><tspan class="cls-19" x="102.3" y="0">r</tspan><tspan x="134.17" y="0">ch 2</tspan><tspan class="cls-20" x="269.32" y="0">7</tspan></text><text class="cls-2" transform="translate(3180.91 2789.83)"><tspan class="cls-18">M</tspan><tspan x="64.95" y="0">a</tspan><tspan class="cls-19" x="102.3" y="0">r</tspan><tspan x="134.17" y="0">ch 26</tspan></text><line class="cls-1" x1="281.07" y1="2703.82" x2="2354.69" y2="2703.82"/><line class="cls-1" x1="281.07" y1="2703.82" x2="281.07" y2="2650.85"/><line class="cls-1" x1="695.8" y1="2703.82" x2="695.8" y2="2650.85"/><line class="cls-1" x1="1110.52" y1="2703.82" x2="1110.52" y2="2650.85"/><line class="cls-1" x1="1525.24" y1="2703.82" x2="1525.24" y2="2650.85"/><line class="cls-1" x1="1939.96" y1="2703.82" x2="1939.96" y2="2650.85"/><line class="cls-1" x1="2354.69" y1="2703.82" x2="2354.69" y2="2650.85"/><text class="cls-2" transform="translate(203.67 2732.27)">0</text><text class="cls-2" transform="translate(212.75 2379.13)">2</text><text class="cls-2" transform="translate(211.62 2025.99)">4</text><text class="cls-2" transform="translate(209.9 1672.84)">6</text><text class="cls-2" transform="translate(209.67 1319.7)">8</text><text class="cls-2" transform="translate(175.92 966.56)">10</text><text class="cls-2" transform="translate(185 613.42)">12</text><line class="cls-1" x1="281.07" y1="2701.45" x2="281.07" y2="582.6"/><line class="cls-1" x1="281.07" y1="2703.82" x2="332.91" y2="2703.82"/><line class="cls-1" x1="281.07" y1="2350.68" x2="332.91" y2="2350.68"/><line class="cls-1" x1="281.07" y1="1997.54" x2="332.91" y2="1997.54"/><line class="cls-1" x1="281.07" y1="1644.39" x2="332.91" y2="1644.39"/><line class="cls-1" x1="281.07" y1="1291.25" x2="332.91" y2="1291.25"/><line class="cls-1" x1="281.07" y1="938.11" x2="332.91" y2="938.11"/><line class="cls-1" x1="281.07" y1="584.97" x2="332.91" y2="584.97"/><rect class="cls-4" x="753.86" y="938.11" width="298.6" height="529.71"/><rect class="cls-5" x="753.86" y="1467.82" width="298.6" height="353.14"/><rect class="cls-5" x="1998.02" y="584.97" width="298.6" height="353.14"/><rect class="cls-6" x="753.86" y="1820.97" width="298.6" height="353.14"/><rect class="cls-6" x="1168.58" y="2174.11" width="298.6" height="176.57"/><rect class="cls-6" x="1583.3" y="1997.54" width="298.6" height="176.57"/><rect class="cls-6" x="1998.02" y="938.11" width="298.6" height="706.28"/><rect class="cls-7" x="339.14" y="2350.68" width="298.6" height="176.57"/><rect class="cls-7" x="753.86" y="2174.11" width="298.6" height="176.57"/><rect class="cls-7" x="1583.3" y="2174.11" width="298.6" height="176.57"/><rect class="cls-7" x="1998.02" y="1644.39" width="298.6" height="353.14"/><rect class="cls-8" x="339.14" y="2527.25" width="298.6" height="176.57"/><rect class="cls-8" x="753.86" y="2350.68" width="298.6" height="353.14"/><rect class="cls-8" x="1168.58" y="2350.68" width="298.6" height="353.14"/><rect class="cls-8" x="1583.3" y="2350.68" width="298.6" height="353.14"/><rect class="cls-8" x="1998.02" y="1997.54" width="298.6" height="706.28"/><text class="cls-2" transform="translate(1997.62 2809.83)"><tspan class="cls-21">M</tspan><tspan x="64.95" y="0">a</tspan><tspan class="cls-22" x="102.3" y="0">r</tspan><tspan class="cls-23" x="134.17" y="0">ch 2</tspan><tspan class="cls-24" x="269.32" y="0">5</tspan></text><text class="cls-2" transform="translate(1579.41 2809.83)"><tspan class="cls-21">M</tspan><tspan x="64.95" y="0">a</tspan><tspan class="cls-22" x="102.3" y="0">r</tspan><tspan class="cls-23" x="134.17" y="0">ch 24</tspan></text><text class="cls-2" transform="translate(1166.3 2809.83)"><tspan class="cls-21">M</tspan><tspan x="64.95" y="0">a</tspan><tspan class="cls-22" x="102.3" y="0">r</tspan><tspan class="cls-23" x="134.17" y="0">ch 23</tspan></text><text class="cls-2" transform="translate(750.53 2809.83)"><tspan class="cls-21">M</tspan><tspan x="64.95" y="0">a</tspan><tspan class="cls-22" x="102.3" y="0">r</tspan><tspan class="cls-23" x="134.17" y="0">ch 22</tspan></text><text class="cls-2" transform="translate(339.9 2809.83)"><tspan class="cls-21">M</tspan><tspan x="64.95" y="0">a</tspan><tspan class="cls-22" x="102.3" y="0">r</tspan><tspan class="cls-23" x="134.17" y="0">ch 21</tspan></text><text class="cls-25" transform="translate(1647.57 128.1)"><tspan class="cls-26">N</tspan><tspan x="105.9" y="0">umb</tspan><tspan class="cls-27" x="420.45" y="0">e</tspan><tspan class="cls-28" x="495.15" y="0">r</tspan><tspan x="562.05" y="0" xml:space="preserve"> of</tspan><tspan class="cls-29" x="734.54" y="0"> </tspan><tspan class="cls-30" x="766.04" y="0">T</tspan><tspan class="cls-31" x="866.24" y="0">w</tspan><tspan x="982.04" y="0">eets p</tspan><tspan class="cls-27" x="1380.28" y="0">e</tspan><tspan class="cls-32" x="1454.98" y="0">r</tspan><tspan x="1521.88" y="0" xml:space="preserve"> Contin</tspan><tspan class="cls-33" x="2031.57" y="0">e</tspan><tspan class="cls-23" x="2106.27" y="0">n</tspan><tspan class="cls-34" x="2198.37" y="0">t</tspan></text><text class="cls-35" transform="translate(64.05 1949.6) rotate(-90)"><tspan class="cls-36">N</tspan><tspan x="52.57" y="0">umb</tspan><tspan class="cls-37" x="208.12" y="0">e</tspan><tspan class="cls-32" x="245.7" y="0">r</tspan><tspan x="278.55" y="0" xml:space="preserve"> of</tspan><tspan class="cls-38" x="364.27" y="0"> </tspan><tspan class="cls-23" x="380.39" y="0">T</tspan><tspan class="cls-39" x="429.29" y="0">w</tspan><tspan x="486.9" y="0">eets</tspan></text><text class="cls-35" transform="translate(1226.25 3011.86)"><tspan class="cls-27">D</tspan><tspan class="cls-23" x="56.4" y="0">a</tspan><tspan class="cls-40" x="94.72" y="0">t</tspan><tspan x="120.97" y="0">e</tspan></text><text class="cls-35" transform="translate(3666.79 3011.86)"><tspan class="cls-27">D</tspan><tspan class="cls-23" x="56.4" y="0">a</tspan><tspan class="cls-40" x="94.72" y="0">t</tspan><tspan x="120.97" y="0">e</tspan></text><text class="cls-35" transform="translate(2852.23 1935.57) rotate(-90)"><tspan class="cls-36">N</tspan><tspan x="52.57" y="0">umb</tspan><tspan class="cls-37" x="208.12" y="0">e</tspan><tspan class="cls-32" x="245.7" y="0">r</tspan><tspan x="278.55" y="0" xml:space="preserve"> of</tspan><tspan class="cls-38" x="364.27" y="0"> </tspan><tspan class="cls-23" x="380.39" y="0">T</tspan><tspan class="cls-39" x="429.29" y="0">w</tspan><tspan x="486.9" y="0">eets</tspan></text></g></g></svg>